

solid Exported from Blender-2.90.0
facet normal 0.000000 0.000000 -1.000000
outer loop
vertex 0.029346 14.161430 -2.237396
vertex -2.896654 -15.551569 -2.237396
vertex -2.896654 13.872431 -2.237396
endloop
endfacet
facet normal 0.000000 0.000000 -1.000000
outer loop
vertex 8.363346 11.632431 -2.237396
vertex -2.896654 -15.551569 -2.237396
vertex 5.769346 13.019431 -2.237396
endloop
endfacet
facet normal 0.000000 0.000000 -1.000000
outer loop
vertex -8.304653 11.632431 -2.237396
vertex -5.710653 13.019431 -2.237396
vertex -2.896654 -15.551569 -2.237396
endloop
endfacet
facet normal 0.000000 0.000000 -1.000000
outer loop
vertex -2.896654 13.872431 -2.237396
vertex -2.896654 -15.551569 -2.237396
vertex -5.710653 13.019431 -2.237396
endloop
endfacet
facet normal 0.000000 0.000000 -1.000000
outer loop
vertex 14.741346 -3.765569 -2.237396
vertex -2.896654 -15.551569 -2.237396
vertex 15.029346 -0.839569 -2.237396
endloop
endfacet
facet normal 0.000000 0.000000 -1.000000
outer loop
vertex 10.636347 9.767431 -2.237396
vertex -2.896654 -15.551569 -2.237396
vertex 8.363346 11.632431 -2.237396
endloop
endfacet
facet normal -0.000000 0.000000 -1.000000
outer loop
vertex 14.741346 2.086431 -2.237396
vertex -2.896654 -15.551569 -2.237396
vertex 13.888347 4.900431 -2.237396
endloop
endfacet
facet normal 0.000000 0.000000 -1.000000
outer loop
vertex 15.029346 -0.839569 -2.237396
vertex -2.896654 -15.551569 -2.237396
vertex 14.741346 2.086431 -2.237396
endloop
endfacet
facet normal 0.000000 0.000000 -1.000000
outer loop
vertex 13.888347 -6.579569 -2.237396
vertex -2.896654 -15.551569 -2.237396
vertex 14.741346 -3.765569 -2.237396
endloop
endfacet
facet normal 0.000000 0.000000 -1.000000
outer loop
vertex 12.501347 7.494431 -2.237396
vertex 13.888347 4.900431 -2.237396
vertex -2.896654 -15.551569 -2.237396
endloop
endfacet
facet normal 0.000000 0.000000 -1.000000
outer loop
vertex 8.363346 -13.311569 -2.237396
vertex 5.769346 -14.698568 -2.237396
vertex 8.988346 -12.798569 -2.237396
endloop
endfacet
facet normal 0.000000 0.000000 -1.000000
outer loop
vertex 12.501347 -9.173569 -2.237396
vertex 8.988346 -12.798569 -2.237396
vertex 5.769346 -14.698568 -2.237396
endloop
endfacet
facet normal 0.000000 0.000000 -1.000000
outer loop
vertex 12.501347 -9.173569 -2.237396
vertex -2.896654 -15.551569 -2.237396
vertex 13.888347 -6.579569 -2.237396
endloop
endfacet
facet normal 0.000000 0.000000 -1.000000
outer loop
vertex 10.636347 -11.446569 -2.237396
vertex 8.988346 -12.798569 -2.237396
vertex 12.501347 -9.173569 -2.237396
endloop
endfacet
facet normal 0.000000 0.000000 -1.000000
outer loop
vertex 0.029346 14.161430 -2.237396
vertex 2.955347 13.872431 -2.237396
vertex -2.896654 -15.551569 -2.237396
endloop
endfacet
facet normal 0.000000 0.000000 -1.000000
outer loop
vertex 2.955347 13.872431 -2.237396
vertex 5.769346 13.019431 -2.237396
vertex -2.896654 -15.551569 -2.237396
endloop
endfacet
facet normal 0.000000 0.000000 -1.000000
outer loop
vertex -10.577654 9.767431 -2.237396
vertex -8.304653 11.632431 -2.237396
vertex -2.896654 -15.551569 -2.237396
endloop
endfacet
facet normal 0.000000 0.000000 -1.000000
outer loop
vertex 10.636347 9.767431 -2.237396
vertex 12.501347 7.494431 -2.237396
vertex -2.896654 -15.551569 -2.237396
endloop
endfacet
facet normal 0.000000 0.000000 -1.000000
outer loop
vertex -12.442654 7.494431 -2.237396
vertex -11.929653 8.119431 -2.237396
vertex -2.896654 -15.551569 -2.237396
endloop
endfacet
facet normal 0.000000 0.000000 -1.000000
outer loop
vertex -13.829653 4.900431 -2.237396
vertex -12.442654 7.494431 -2.237396
vertex -2.896654 -15.551569 -2.237396
endloop
endfacet
facet normal 0.000000 0.000000 -1.000000
outer loop
vertex -11.929653 8.119431 -2.237396
vertex -10.577654 9.767431 -2.237396
vertex -2.896654 -15.551569 -2.237396
endloop
endfacet
facet normal 0.000000 0.000000 -1.000000
outer loop
vertex -14.682653 2.086431 -2.237396
vertex -13.829653 4.900431 -2.237396
vertex -2.896654 -15.551569 -2.237396
endloop
endfacet
facet normal -0.000000 0.000000 -1.000000
outer loop
vertex -14.971653 -0.839569 -2.237396
vertex -14.682653 2.086431 -2.237396
vertex -2.896654 -15.551569 -2.237396
endloop
endfacet
facet normal 0.000000 0.000000 -1.000000
outer loop
vertex -14.971653 -0.839569 -2.237396
vertex -2.896654 -15.551569 -2.237396
vertex -14.682653 -3.765569 -2.237396
endloop
endfacet
facet normal 0.000000 0.000000 -1.000000
outer loop
vertex 0.029346 -15.840569 -2.237396
vertex -2.896654 -15.551569 -2.237396
vertex 12.501347 -9.173569 -2.237396
endloop
endfacet
facet normal 0.000000 0.000000 -1.000000
outer loop
vertex 5.769346 -14.698568 -2.237396
vertex 2.955347 -15.551569 -2.237396
vertex 12.501347 -9.173569 -2.237396
endloop
endfacet
facet normal 0.000000 0.000000 -1.000000
outer loop
vertex 0.029346 -15.840569 -2.237396
vertex 12.501347 -9.173569 -2.237396
vertex 2.955347 -15.551569 -2.237396
endloop
endfacet
facet normal 0.000000 0.000000 -1.000000
outer loop
vertex -8.304653 -13.311569 -2.237396
vertex -14.682653 -3.765569 -2.237396
vertex -5.710653 -14.698568 -2.237396
endloop
endfacet
facet normal 0.000000 0.000000 -1.000000
outer loop
vertex -10.577654 -11.446569 -2.237396
vertex -14.682653 -3.765569 -2.237396
vertex -8.304653 -13.311569 -2.237396
endloop
endfacet
facet normal 0.000000 0.000000 -1.000000
outer loop
vertex -12.442654 -9.173569 -2.237396
vertex -14.682653 -3.765569 -2.237396
vertex -10.577654 -11.446569 -2.237396
endloop
endfacet
facet normal 0.000000 0.000000 -1.000000
outer loop
vertex -13.829653 -6.579569 -2.237396
vertex -14.682653 -3.765569 -2.237396
vertex -12.442654 -9.173569 -2.237396
endloop
endfacet
facet normal 0.000000 0.000000 -1.000000
outer loop
vertex -2.896654 -15.551569 -2.237396
vertex -5.710653 -14.698568 -2.237396
vertex -14.682653 -3.765569 -2.237396
endloop
endfacet
facet normal 0.469266 0.877632 0.097727
outer loop
vertex 8.363346 11.632431 -2.237396
vertex 5.769346 13.019431 -2.237396
vertex 5.659347 12.752431 0.688604
endloop
endfacet
facet normal 0.468944 0.877847 0.097346
outer loop
vertex 8.363346 11.632431 -2.237396
vertex 5.659347 12.752431 0.688604
vertex 8.203346 11.393431 0.688604
endloop
endfacet
facet normal 0.631507 0.769196 0.097657
outer loop
vertex 8.203346 11.393431 0.688604
vertex 10.432346 9.563431 0.688604
vertex 10.636347 9.767431 -2.237396
endloop
endfacet
facet normal 0.631297 0.769405 0.097367
outer loop
vertex 10.636347 9.767431 -2.237396
vertex 8.363346 11.632431 -2.237396
vertex 8.203346 11.393431 0.688604
endloop
endfacet
facet normal 0.769383 0.631280 0.097654
outer loop
vertex 10.432346 9.563431 0.688604
vertex 12.501347 7.494431 -2.237396
vertex 10.636347 9.767431 -2.237396
endloop
endfacet
facet normal 0.416345 0.778526 0.469632
outer loop
vertex 6.958346 9.530431 6.096604
vertex 7.728346 10.683431 3.502604
vertex 4.802346 10.683431 6.096604
endloop
endfacet
facet normal 0.416276 0.778609 0.469555
outer loop
vertex 7.728346 10.683431 3.502604
vertex 5.332346 11.964431 3.502604
vertex 4.802346 10.683431 6.096604
endloop
endfacet
facet normal 0.451341 0.844194 0.289184
outer loop
vertex 7.728346 10.683431 3.502604
vertex 8.203346 11.393431 0.688604
vertex 5.332346 11.964431 3.502604
endloop
endfacet
facet normal 0.451093 0.844429 0.288885
outer loop
vertex 8.203346 11.393431 0.688604
vertex 5.659347 12.752431 0.688604
vertex 5.332346 11.964431 3.502604
endloop
endfacet
facet normal 0.607423 0.739862 0.289207
outer loop
vertex 10.432346 9.563431 0.688604
vertex 8.203346 11.393431 0.688604
vertex 7.728346 10.683431 3.502604
endloop
endfacet
facet normal -0.075711 0.770733 0.632644
outer loop
vertex 0.029346 11.632431 6.096604
vertex -2.403654 11.393431 6.096604
vertex -2.039653 9.563431 8.369604
endloop
endfacet
facet normal -0.076004 0.770842 0.632477
outer loop
vertex 0.029346 9.767431 8.369604
vertex 0.029346 11.632431 6.096604
vertex -2.039653 9.563431 8.369604
endloop
endfacet
facet normal 0.075989 0.770694 0.632658
outer loop
vertex 2.098346 9.563431 8.369604
vertex 2.462347 11.393431 6.096604
vertex 0.029346 9.767431 8.369604
endloop
endfacet
facet normal 0.075723 0.770858 0.632490
outer loop
vertex 0.029346 11.632431 6.096604
vertex 0.029346 9.767431 8.369604
vertex 2.462347 11.393431 6.096604
endloop
endfacet
facet normal 0.086748 0.878529 0.469747
outer loop
vertex 2.733346 12.752431 3.502604
vertex 0.029346 13.019431 3.502604
vertex 0.029346 11.632431 6.096604
endloop
endfacet
facet normal 0.086323 0.878756 0.469399
outer loop
vertex 2.462347 11.393431 6.096604
vertex 2.733346 12.752431 3.502604
vertex 0.029346 11.632431 6.096604
endloop
endfacet
facet normal 0.224856 0.741075 0.632651
outer loop
vertex 4.802346 10.683431 6.096604
vertex 2.462347 11.393431 6.096604
vertex 2.098346 9.563431 8.369604
endloop
endfacet
facet normal 0.256344 0.844851 0.469589
outer loop
vertex 4.802346 10.683431 6.096604
vertex 5.332346 11.964431 3.502604
vertex 2.462347 11.393431 6.096604
endloop
endfacet
facet normal -0.416258 0.778575 0.469628
outer loop
vertex -5.273654 11.964431 3.502604
vertex -7.669654 10.683431 3.502604
vertex -6.899653 9.530431 6.096604
endloop
endfacet
facet normal -0.451051 0.844352 0.289176
outer loop
vertex -5.600654 12.752431 0.688604
vertex -8.144653 11.393431 0.688604
vertex -7.669654 10.683431 3.502604
endloop
endfacet
facet normal -0.416366 0.778564 0.469551
outer loop
vertex -6.899653 9.530431 6.096604
vertex -4.743653 10.683431 6.096604
vertex -5.273654 11.964431 3.502604
endloop
endfacet
facet normal -0.451385 0.844277 0.288875
outer loop
vertex -7.669654 10.683431 3.502604
vertex -5.273654 11.964431 3.502604
vertex -5.600654 12.752431 0.688604
endloop
endfacet
facet normal -0.224893 0.741198 0.632494
outer loop
vertex -4.029654 8.960431 8.369604
vertex -2.403654 11.393431 6.096604
vertex -4.743653 10.683431 6.096604
endloop
endfacet
facet normal -0.256170 0.844908 0.469583
outer loop
vertex -2.674654 12.752431 3.502604
vertex -5.273654 11.964431 3.502604
vertex -4.743653 10.683431 6.096604
endloop
endfacet
facet normal -0.256367 0.844927 0.469441
outer loop
vertex -2.674654 12.752431 3.502604
vertex -4.743653 10.683431 6.096604
vertex -2.403654 11.393431 6.096604
endloop
endfacet
facet normal 0.224623 0.741292 0.632480
outer loop
vertex 4.088346 8.960431 8.369604
vertex 4.802346 10.683431 6.096604
vertex 2.098346 9.563431 8.369604
endloop
endfacet
facet normal 0.365317 0.682967 0.632534
outer loop
vertex 6.958346 9.530431 6.096604
vertex 4.088346 8.960431 8.369604
vertex 5.922347 7.979431 8.369604
endloop
endfacet
facet normal 0.365274 0.683027 0.632495
outer loop
vertex 6.958346 9.530431 6.096604
vertex 4.802346 10.683431 6.096604
vertex 4.088346 8.960431 8.369604
endloop
endfacet
facet normal 0.403577 0.491697 0.771596
outer loop
vertex 7.529346 6.660431 8.369604
vertex 5.922347 7.979431 8.369604
vertex 4.659347 6.089431 10.234604
endloop
endfacet
facet normal 0.491386 0.598679 0.632554
outer loop
vertex 8.848347 7.979431 6.096604
vertex 5.922347 7.979431 8.369604
vertex 7.529346 6.660431 8.369604
endloop
endfacet
facet normal 0.491354 0.598748 0.632512
outer loop
vertex 8.848347 7.979431 6.096604
vertex 6.958346 9.530431 6.096604
vertex 5.922347 7.979431 8.369604
endloop
endfacet
facet normal 0.598724 0.491334 0.632551
outer loop
vertex 10.399346 6.089431 6.096604
vertex 8.848347 7.979431 6.096604
vertex 7.529346 6.660431 8.369604
endloop
endfacet
facet normal 0.598707 0.491409 0.632509
outer loop
vertex 7.529346 6.660431 8.369604
vertex 8.848347 5.053431 8.369604
vertex 10.399346 6.089431 6.096604
endloop
endfacet
facet normal 0.683001 0.365260 0.632531
outer loop
vertex 11.552346 3.933431 6.096604
vertex 10.399346 6.089431 6.096604
vertex 8.848347 5.053431 8.369604
endloop
endfacet
facet normal 0.682998 0.365334 0.632491
outer loop
vertex 9.829347 3.219431 8.369604
vertex 11.552346 3.933431 6.096604
vertex 8.848347 5.053431 8.369604
endloop
endfacet
facet normal 0.741148 0.224579 0.632665
outer loop
vertex 10.432346 1.229431 8.369604
vertex 12.262346 1.593431 6.096604
vertex 9.829347 3.219431 8.369604
endloop
endfacet
facet normal 0.741198 0.224894 0.632494
outer loop
vertex 12.262346 1.593431 6.096604
vertex 11.552346 3.933431 6.096604
vertex 9.829347 3.219431 8.369604
endloop
endfacet
facet normal 0.770733 0.075711 0.632644
outer loop
vertex 12.501347 -0.839569 6.096604
vertex 12.262346 1.593431 6.096604
vertex 10.432346 1.229431 8.369604
endloop
endfacet
facet normal 0.403486 0.491895 0.771517
outer loop
vertex 5.922347 5.053431 10.234604
vertex 7.529346 6.660431 8.369604
vertex 4.659347 6.089431 10.234604
endloop
endfacet
facet normal 0.365978 0.300201 0.880874
outer loop
vertex 6.958346 3.790431 10.234604
vertex 5.922347 5.053431 10.234604
vertex 4.088346 3.219431 11.621605
endloop
endfacet
facet normal 0.365941 0.300324 0.880848
outer loop
vertex 4.802346 2.349431 11.621605
vertex 6.958346 3.790431 10.234604
vertex 4.088346 3.219431 11.621605
endloop
endfacet
facet normal 0.491813 0.403419 0.771605
outer loop
vertex 5.922347 5.053431 10.234604
vertex 6.958346 3.790431 10.234604
vertex 8.848347 5.053431 8.369604
endloop
endfacet
facet normal 0.491762 0.403631 0.771526
outer loop
vertex 8.848347 5.053431 8.369604
vertex 7.529346 6.660431 8.369604
vertex 5.922347 5.053431 10.234604
endloop
endfacet
facet normal 0.417544 0.223083 0.880847
outer loop
vertex 5.332346 1.357431 11.621605
vertex 7.728346 2.349431 10.234604
vertex 4.802346 2.349431 11.621605
endloop
endfacet
facet normal 0.417542 0.223114 0.880840
outer loop
vertex 7.728346 2.349431 10.234604
vertex 6.958346 3.790431 10.234604
vertex 4.802346 2.349431 11.621605
endloop
endfacet
facet normal 0.560915 0.299726 0.771712
outer loop
vertex 7.728346 2.349431 10.234604
vertex 9.829347 3.219431 8.369604
vertex 6.958346 3.790431 10.234604
endloop
endfacet
facet normal 0.560904 0.300025 0.771603
outer loop
vertex 9.829347 3.219431 8.369604
vertex 8.848347 5.053431 8.369604
vertex 6.958346 3.790431 10.234604
endloop
endfacet
facet normal 0.608651 0.184430 0.771705
outer loop
vertex 10.432346 1.229431 8.369604
vertex 9.829347 3.219431 8.369604
vertex 7.728346 2.349431 10.234604
endloop
endfacet
facet normal 0.769218 0.631525 0.097364
outer loop
vertex 10.432346 9.563431 0.688604
vertex 12.262346 7.334431 0.688604
vertex 12.501347 7.494431 -2.237396
endloop
endfacet
facet normal 0.877814 0.468926 0.097730
outer loop
vertex 12.262346 7.334431 0.688604
vertex 13.621346 4.790431 0.688604
vertex 13.888347 4.900431 -2.237396
endloop
endfacet
facet normal 0.256191 0.844976 0.469449
outer loop
vertex 2.462347 11.393431 6.096604
vertex 5.332346 11.964431 3.502604
vertex 2.733346 12.752431 3.502604
endloop
endfacet
facet normal -0.289148 0.952325 0.097317
outer loop
vertex -5.600654 12.752431 0.688604
vertex -2.840653 13.590431 0.688604
vertex -2.896654 13.872431 -2.237396
endloop
endfacet
facet normal -0.097318 0.990434 0.097825
outer loop
vertex -2.840653 13.590431 0.688604
vertex 0.029346 13.872431 0.688604
vertex 0.029346 14.161430 -2.237396
endloop
endfacet
facet normal -0.097825 0.990433 0.097327
outer loop
vertex 0.029346 14.161430 -2.237396
vertex -2.896654 13.872431 -2.237396
vertex -2.840653 13.590431 0.688604
endloop
endfacet
facet normal 0.097820 0.990385 0.097821
outer loop
vertex 2.955347 13.872431 -2.237396
vertex 0.029346 14.161430 -2.237396
vertex 0.029346 13.872431 0.688604
endloop
endfacet
facet normal 0.097323 0.990483 0.097322
outer loop
vertex 0.029346 13.872431 0.688604
vertex 2.899346 13.590431 0.688604
vertex 2.955347 13.872431 -2.237396
endloop
endfacet
facet normal 0.289135 0.952283 0.097767
outer loop
vertex 2.899346 13.590431 0.688604
vertex 5.659347 12.752431 0.688604
vertex 5.769346 13.019431 -2.237396
endloop
endfacet
facet normal 0.288715 0.952456 0.097320
outer loop
vertex 5.769346 13.019431 -2.237396
vertex 2.955347 13.872431 -2.237396
vertex 2.899346 13.590431 0.688604
endloop
endfacet
facet normal -0.277753 0.916090 0.289194
outer loop
vertex -5.273654 11.964431 3.502604
vertex -2.674654 12.752431 3.502604
vertex -2.840653 13.590431 0.688604
endloop
endfacet
facet normal -0.278143 0.916080 0.288850
outer loop
vertex -5.273654 11.964431 3.502604
vertex -2.840653 13.590431 0.688604
vertex -5.600654 12.752431 0.688604
endloop
endfacet
facet normal -0.086304 0.878563 0.469764
outer loop
vertex 0.029346 11.632431 6.096604
vertex 0.029346 13.019431 3.502604
vertex -2.403654 11.393431 6.096604
endloop
endfacet
facet normal -0.086765 0.878702 0.469419
outer loop
vertex 0.029346 13.019431 3.502604
vertex -2.674654 12.752431 3.502604
vertex -2.403654 11.393431 6.096604
endloop
endfacet
facet normal -0.093607 0.952673 0.289225
outer loop
vertex 0.029346 13.872431 0.688604
vertex -2.840653 13.590431 0.688604
vertex -2.674654 12.752431 3.502604
endloop
endfacet
facet normal -0.094078 0.952754 0.288806
outer loop
vertex 0.029346 13.019431 3.502604
vertex 0.029346 13.872431 0.688604
vertex -2.674654 12.752431 3.502604
endloop
endfacet
facet normal 0.094065 0.952624 0.289238
outer loop
vertex 2.733346 12.752431 3.502604
vertex 2.899346 13.590431 0.688604
vertex 0.029346 13.019431 3.502604
endloop
endfacet
facet normal 0.093620 0.952796 0.288818
outer loop
vertex 2.899346 13.590431 0.688604
vertex 0.029346 13.872431 0.688604
vertex 0.029346 13.019431 3.502604
endloop
endfacet
facet normal 0.278114 0.915983 0.289183
outer loop
vertex 5.659347 12.752431 0.688604
vertex 2.899346 13.590431 0.688604
vertex 2.733346 12.752431 3.502604
endloop
endfacet
facet normal 0.277784 0.916192 0.288839
outer loop
vertex 5.332346 11.964431 3.502604
vertex 5.659347 12.752431 0.688604
vertex 2.733346 12.752431 3.502604
endloop
endfacet
facet normal -0.631280 0.769383 0.097654
outer loop
vertex -8.304653 11.632431 -2.237396
vertex -10.577654 9.767431 -2.237396
vertex -10.373653 9.563431 0.688604
endloop
endfacet
facet normal -0.631525 0.769218 0.097364
outer loop
vertex -10.373653 9.563431 0.688604
vertex -8.144653 11.393431 0.688604
vertex -8.304653 11.632431 -2.237396
endloop
endfacet
facet normal -0.468926 0.877814 0.097729
outer loop
vertex -8.144653 11.393431 0.688604
vertex -5.600654 12.752431 0.688604
vertex -5.710653 13.019431 -2.237396
endloop
endfacet
facet normal -0.469284 0.877665 0.097351
outer loop
vertex -5.710653 13.019431 -2.237396
vertex -8.304653 11.632431 -2.237396
vertex -8.144653 11.393431 0.688604
endloop
endfacet
facet normal -0.288703 0.952415 0.097762
outer loop
vertex -5.600654 12.752431 0.688604
vertex -2.896654 13.872431 -2.237396
vertex -5.710653 13.019431 -2.237396
endloop
endfacet
facet normal -0.075723 -0.770858 0.632490
outer loop
vertex 0.029346 -13.311569 6.096604
vertex 0.029346 -11.446569 8.369604
vertex -2.403654 -13.072569 6.096604
endloop
endfacet
facet normal -0.086323 -0.878757 0.469399
outer loop
vertex -2.403654 -13.072569 6.096604
vertex -2.674654 -14.431568 3.502604
vertex 0.029346 -13.311569 6.096604
endloop
endfacet
facet normal 0.097318 -0.990434 0.097825
outer loop
vertex 2.899346 -15.269569 0.688604
vertex 0.029346 -15.551569 0.688604
vertex 0.029346 -15.840569 -2.237396
endloop
endfacet
facet normal 0.097825 -0.990433 0.097327
outer loop
vertex 0.029346 -15.840569 -2.237396
vertex 2.955347 -15.551569 -2.237396
vertex 2.899346 -15.269569 0.688604
endloop
endfacet
facet normal -0.097820 -0.990385 0.097821
outer loop
vertex -2.896654 -15.551569 -2.237396
vertex 0.029346 -15.840569 -2.237396
vertex 0.029346 -15.551569 0.688604
endloop
endfacet
facet normal -0.097323 -0.990483 0.097322
outer loop
vertex -2.896654 -15.551569 -2.237396
vertex 0.029346 -15.551569 0.688604
vertex -2.840653 -15.269569 0.688604
endloop
endfacet
facet normal 0.086304 -0.878564 0.469763
outer loop
vertex 0.029346 -14.698568 3.502604
vertex 2.462347 -13.072569 6.096604
vertex 0.029346 -13.311569 6.096604
endloop
endfacet
facet normal 0.086765 -0.878703 0.469418
outer loop
vertex 2.462347 -13.072569 6.096604
vertex 0.029346 -14.698568 3.502604
vertex 2.733346 -14.431568 3.502604
endloop
endfacet
facet normal 0.093607 -0.952673 0.289226
outer loop
vertex 0.029346 -15.551569 0.688604
vertex 2.899346 -15.269569 0.688604
vertex 2.733346 -14.431568 3.502604
endloop
endfacet
facet normal 0.094078 -0.952754 0.288806
outer loop
vertex 0.029346 -14.698568 3.502604
vertex 0.029346 -15.551569 0.688604
vertex 2.733346 -14.431568 3.502604
endloop
endfacet
facet normal -0.086748 -0.878529 0.469746
outer loop
vertex 0.029346 -13.311569 6.096604
vertex -2.674654 -14.431568 3.502604
vertex 0.029346 -14.698568 3.502604
endloop
endfacet
facet normal -0.094065 -0.952624 0.289238
outer loop
vertex 0.029346 -14.698568 3.502604
vertex -2.674654 -14.431568 3.502604
vertex -2.840653 -15.269569 0.688604
endloop
endfacet
facet normal -0.093619 -0.952795 0.288819
outer loop
vertex 0.029346 -14.698568 3.502604
vertex -2.840653 -15.269569 0.688604
vertex 0.029346 -15.551569 0.688604
endloop
endfacet
facet normal -0.256191 -0.844976 0.469449
outer loop
vertex -2.403654 -13.072569 6.096604
vertex -5.273654 -13.643570 3.502604
vertex -2.674654 -14.431568 3.502604
endloop
endfacet
facet normal -0.278114 -0.915983 0.289183
outer loop
vertex -5.600654 -14.431568 0.688604
vertex -2.840653 -15.269569 0.688604
vertex -2.674654 -14.431568 3.502604
endloop
endfacet
facet normal -0.256343 -0.844851 0.469590
outer loop
vertex -2.403654 -13.072569 6.096604
vertex -4.743653 -12.362570 6.096604
vertex -5.273654 -13.643570 3.502604
endloop
endfacet
facet normal -0.416345 -0.778526 0.469632
outer loop
vertex -6.899653 -11.209570 6.096604
vertex -7.669654 -12.362570 3.502604
vertex -4.743653 -12.362570 6.096604
endloop
endfacet
facet normal -0.416276 -0.778609 0.469555
outer loop
vertex -7.669654 -12.362570 3.502604
vertex -5.273654 -13.643570 3.502604
vertex -4.743653 -12.362570 6.096604
endloop
endfacet
facet normal -0.403577 -0.491697 0.771595
outer loop
vertex -7.470654 -8.339569 8.369604
vertex -5.863653 -9.658569 8.369604
vertex -4.600654 -7.768570 10.234604
endloop
endfacet
facet normal -0.491386 -0.598679 0.632553
outer loop
vertex -7.470654 -8.339569 8.369604
vertex -8.789654 -9.658569 6.096604
vertex -5.863653 -9.658569 8.369604
endloop
endfacet
facet normal -0.491354 -0.598748 0.632513
outer loop
vertex -6.899653 -11.209570 6.096604
vertex -5.863653 -9.658569 8.369604
vertex -8.789654 -9.658569 6.096604
endloop
endfacet
facet normal -0.559993 -0.682389 0.469844
outer loop
vertex -8.789654 -9.658569 6.096604
vertex -9.770654 -10.639568 3.502604
vertex -6.899653 -11.209570 6.096604
endloop
endfacet
facet normal -0.598724 -0.491334 0.632551
outer loop
vertex -10.340653 -7.768570 6.096604
vertex -8.789654 -9.658569 6.096604
vertex -7.470654 -8.339569 8.369604
endloop
endfacet
facet normal -0.289135 -0.952283 0.097767
outer loop
vertex -5.600654 -14.431568 0.688604
vertex -5.710653 -14.698568 -2.237396
vertex -2.840653 -15.269569 0.688604
endloop
endfacet
facet normal -0.288716 -0.952456 0.097321
outer loop
vertex -5.710653 -14.698568 -2.237396
vertex -2.896654 -15.551569 -2.237396
vertex -2.840653 -15.269569 0.688604
endloop
endfacet
facet normal -0.469266 -0.877633 0.097726
outer loop
vertex -8.304653 -13.311569 -2.237396
vertex -5.710653 -14.698568 -2.237396
vertex -5.600654 -14.431568 0.688604
endloop
endfacet
facet normal -0.468944 -0.877847 0.097347
outer loop
vertex -8.304653 -13.311569 -2.237396
vertex -5.600654 -14.431568 0.688604
vertex -8.144653 -13.072569 0.688604
endloop
endfacet
facet normal -0.631507 -0.769196 0.097657
outer loop
vertex -8.144653 -13.072569 0.688604
vertex -10.373653 -11.242569 0.688604
vertex -10.577654 -11.446569 -2.237396
endloop
endfacet
facet normal -0.631297 -0.769404 0.097367
outer loop
vertex -8.144653 -13.072569 0.688604
vertex -10.577654 -11.446569 -2.237396
vertex -8.304653 -13.311569 -2.237396
endloop
endfacet
facet normal -0.769383 -0.631280 0.097654
outer loop
vertex -12.442654 -9.173569 -2.237396
vertex -10.577654 -11.446569 -2.237396
vertex -10.373653 -11.242569 0.688604
endloop
endfacet
facet normal -0.769218 -0.631525 0.097364
outer loop
vertex -10.373653 -11.242569 0.688604
vertex -12.203653 -9.013569 0.688604
vertex -12.442654 -9.173569 -2.237396
endloop
endfacet
facet normal -0.277783 -0.916193 0.288839
outer loop
vertex -5.273654 -13.643570 3.502604
vertex -5.600654 -14.431568 0.688604
vertex -2.674654 -14.431568 3.502604
endloop
endfacet
facet normal -0.451341 -0.844194 0.289185
outer loop
vertex -7.669654 -12.362570 3.502604
vertex -8.144653 -13.072569 0.688604
vertex -5.273654 -13.643570 3.502604
endloop
endfacet
facet normal -0.451093 -0.844430 0.288882
outer loop
vertex -8.144653 -13.072569 0.688604
vertex -5.600654 -14.431568 0.688604
vertex -5.273654 -13.643570 3.502604
endloop
endfacet
facet normal -0.559845 -0.682665 0.469619
outer loop
vertex -7.669654 -12.362570 3.502604
vertex -6.899653 -11.209570 6.096604
vertex -9.770654 -10.639568 3.502604
endloop
endfacet
facet normal -0.607423 -0.739862 0.289206
outer loop
vertex -10.373653 -11.242569 0.688604
vertex -8.144653 -13.072569 0.688604
vertex -7.669654 -12.362570 3.502604
endloop
endfacet
facet normal -0.607113 -0.740302 0.288733
outer loop
vertex -9.770654 -10.639568 3.502604
vertex -10.373653 -11.242569 0.688604
vertex -7.669654 -12.362570 3.502604
endloop
endfacet
facet normal -0.682578 -0.559772 0.469832
outer loop
vertex -11.493653 -8.538568 3.502604
vertex -9.770654 -10.639568 3.502604
vertex -8.789654 -9.658569 6.096604
endloop
endfacet
facet normal -0.740189 -0.607018 0.289221
outer loop
vertex -9.770654 -10.639568 3.502604
vertex -11.493653 -8.538568 3.502604
vertex -12.203653 -9.013569 0.688604
endloop
endfacet
facet normal -0.739969 -0.607512 0.288746
outer loop
vertex -12.203653 -9.013569 0.688604
vertex -10.373653 -11.242569 0.688604
vertex -9.770654 -10.639568 3.502604
endloop
endfacet
facet normal -0.682487 -0.560072 0.469607
outer loop
vertex -10.340653 -7.768570 6.096604
vertex -11.493653 -8.538568 3.502604
vertex -8.789654 -9.658569 6.096604
endloop
endfacet
facet normal -0.844352 -0.451051 0.289175
outer loop
vertex -11.493653 -8.538568 3.502604
vertex -13.562653 -6.469569 0.688604
vertex -12.203653 -9.013569 0.688604
endloop
endfacet
facet normal -0.877665 -0.469283 0.097351
outer loop
vertex -13.829653 -6.579569 -2.237396
vertex -12.442654 -9.173569 -2.237396
vertex -12.203653 -9.013569 0.688604
endloop
endfacet
facet normal 0.112998 0.272799 0.955412
outer loop
vertex 1.655346 1.593431 12.474604
vertex 3.218347 3.933431 11.621605
vertex 0.600347 2.030431 12.474604
endloop
endfacet
facet normal 0.223089 0.417557 0.880839
outer loop
vertex 3.218347 3.933431 11.621605
vertex 4.659347 6.089431 10.234604
vertex 2.226346 4.463431 11.621605
endloop
endfacet
facet normal 0.184851 0.225240 0.956607
outer loop
vertex 4.088346 3.219431 11.621605
vertex 3.218347 3.933431 11.621605
vertex 1.655346 1.593431 12.474604
endloop
endfacet
facet normal 0.300287 0.365896 0.880879
outer loop
vertex 4.088346 3.219431 11.621605
vertex 5.922347 5.053431 10.234604
vertex 3.218347 3.933431 11.621605
endloop
endfacet
facet normal 0.300226 0.366010 0.880852
outer loop
vertex 5.922347 5.053431 10.234604
vertex 4.659347 6.089431 10.234604
vertex 3.218347 3.933431 11.621605
endloop
endfacet
facet normal 0.217285 0.178323 0.959681
outer loop
vertex 4.802346 2.349431 11.621605
vertex 4.088346 3.219431 11.621605
vertex 1.655346 1.593431 12.474604
endloop
endfacet
facet normal 0.256998 0.137307 0.956608
outer loop
vertex 5.332346 1.357431 11.621605
vertex 4.802346 2.349431 11.621605
vertex 2.462347 0.786431 12.474604
endloop
endfacet
facet normal -0.137306 0.256998 0.956608
outer loop
vertex -1.596653 1.593431 12.474604
vertex -2.167654 4.463431 11.621605
vertex -3.159654 3.933431 11.621605
endloop
endfacet
facet normal -0.223082 0.417545 0.880847
outer loop
vertex -3.159654 3.933431 11.621605
vertex -2.167654 4.463431 11.621605
vertex -3.159654 6.859431 10.234604
endloop
endfacet
facet normal -0.081668 0.268979 0.959677
outer loop
vertex -1.090653 4.790431 11.621605
vertex -2.167654 4.463431 11.621605
vertex -1.596653 1.593431 12.474604
endloop
endfacet
facet normal -0.113000 0.272800 0.955411
outer loop
vertex -0.541654 2.030431 12.474604
vertex -1.090653 4.790431 11.621605
vertex -1.596653 1.593431 12.474604
endloop
endfacet
facet normal -0.137513 0.452912 0.880886
outer loop
vertex -1.090653 4.790431 11.621605
vertex -1.596653 7.334431 10.234604
vertex -2.167654 4.463431 11.621605
endloop
endfacet
facet normal -0.028479 0.289982 0.956608
outer loop
vertex -1.090653 4.790431 11.621605
vertex -0.541654 2.030431 12.474604
vertex 0.029346 4.900431 11.621605
endloop
endfacet
facet normal -0.491334 0.598724 0.632550
outer loop
vertex -8.789654 7.979431 6.096604
vertex -7.470654 6.660431 8.369604
vertex -6.899653 9.530431 6.096604
endloop
endfacet
facet normal -0.560072 0.682487 0.469608
outer loop
vertex -7.669654 10.683431 3.502604
vertex -8.789654 7.979431 6.096604
vertex -6.899653 9.530431 6.096604
endloop
endfacet
facet normal -0.491409 0.598707 0.632509
outer loop
vertex -6.899653 9.530431 6.096604
vertex -7.470654 6.660431 8.369604
vertex -5.863653 7.979431 8.369604
endloop
endfacet
facet normal -0.223114 0.417542 0.880840
outer loop
vertex -3.159654 3.933431 11.621605
vertex -3.159654 6.859431 10.234604
vertex -4.600654 6.089431 10.234604
endloop
endfacet
facet normal -0.299726 0.560914 0.771712
outer loop
vertex -3.159654 6.859431 10.234604
vertex -4.029654 8.960431 8.369604
vertex -4.600654 6.089431 10.234604
endloop
endfacet
facet normal -0.365260 0.683001 0.632531
outer loop
vertex -4.743653 10.683431 6.096604
vertex -6.899653 9.530431 6.096604
vertex -5.863653 7.979431 8.369604
endloop
endfacet
facet normal -0.365333 0.682998 0.632491
outer loop
vertex -4.029654 8.960431 8.369604
vertex -4.743653 10.683431 6.096604
vertex -5.863653 7.979431 8.369604
endloop
endfacet
facet normal -0.256998 0.137307 0.956608
outer loop
vertex -4.743653 2.349431 11.621605
vertex -5.273654 1.357431 11.621605
vertex -2.403654 0.786431 12.474604
endloop
endfacet
facet normal -0.417533 0.223109 0.880845
outer loop
vertex -6.899653 3.790431 10.234604
vertex -7.669654 2.349431 10.234604
vertex -5.273654 1.357431 11.621605
endloop
endfacet
facet normal -0.417556 0.223090 0.880839
outer loop
vertex -4.743653 2.349431 11.621605
vertex -6.899653 3.790431 10.234604
vertex -5.273654 1.357431 11.621605
endloop
endfacet
facet normal -0.225239 0.184852 0.956607
outer loop
vertex -2.403654 0.786431 12.474604
vertex -4.029654 3.219431 11.621605
vertex -4.743653 2.349431 11.621605
endloop
endfacet
facet normal -0.365895 0.300287 0.880879
outer loop
vertex -4.743653 2.349431 11.621605
vertex -4.029654 3.219431 11.621605
vertex -5.863653 5.053431 10.234604
endloop
endfacet
facet normal -0.366010 0.300226 0.880852
outer loop
vertex -5.863653 5.053431 10.234604
vertex -6.899653 3.790431 10.234604
vertex -4.743653 2.349431 11.621605
endloop
endfacet
facet normal -0.491895 0.403487 0.771516
outer loop
vertex -6.899653 3.790431 10.234604
vertex -5.863653 5.053431 10.234604
vertex -7.470654 6.660431 8.369604
endloop
endfacet
facet normal -0.300201 0.365978 0.880874
outer loop
vertex -4.600654 6.089431 10.234604
vertex -5.863653 5.053431 10.234604
vertex -4.029654 3.219431 11.621605
endloop
endfacet
facet normal -0.403419 0.491812 0.771605
outer loop
vertex -4.600654 6.089431 10.234604
vertex -5.863653 7.979431 8.369604
vertex -5.863653 5.053431 10.234604
endloop
endfacet
facet normal -0.300324 0.365941 0.880848
outer loop
vertex -4.600654 6.089431 10.234604
vertex -4.029654 3.219431 11.621605
vertex -3.159654 3.933431 11.621605
endloop
endfacet
facet normal -0.403630 0.491762 0.771526
outer loop
vertex -5.863653 5.053431 10.234604
vertex -5.863653 7.979431 8.369604
vertex -7.470654 6.660431 8.369604
endloop
endfacet
facet normal -0.741075 0.224856 0.632651
outer loop
vertex -11.493653 3.933431 6.096604
vertex -12.203653 1.593431 6.096604
vertex -10.373653 1.229431 8.369604
endloop
endfacet
facet normal -0.844851 0.256344 0.469590
outer loop
vertex -11.493653 3.933431 6.096604
vertex -12.774654 4.463431 3.502604
vertex -12.203653 1.593431 6.096604
endloop
endfacet
facet normal -0.741292 0.224622 0.632480
outer loop
vertex -9.770654 3.219431 8.369604
vertex -11.493653 3.933431 6.096604
vertex -10.373653 1.229431 8.369604
endloop
endfacet
facet normal -0.560802 0.299970 0.771699
outer loop
vertex -8.789654 5.053431 8.369604
vertex -9.770654 3.219431 8.369604
vertex -7.669654 2.349431 10.234604
endloop
endfacet
facet normal 0.878756 -0.086322 0.469400
outer loop
vertex 12.262346 -3.272569 6.096604
vertex 13.621346 -3.543570 3.502604
vertex 12.501347 -0.839569 6.096604
endloop
endfacet
facet normal 0.633074 -0.062420 0.771570
outer loop
vertex 10.432346 -2.908569 8.369604
vertex 10.636347 -0.839569 8.369604
vertex 8.363346 -0.839569 10.234604
endloop
endfacet
facet normal 0.633147 -0.062302 0.771520
outer loop
vertex 8.203346 -2.465569 10.234604
vertex 10.432346 -2.908569 8.369604
vertex 8.363346 -0.839569 10.234604
endloop
endfacet
facet normal 0.741292 -0.224622 0.632480
outer loop
vertex 9.829347 -4.898569 8.369604
vertex 11.552346 -5.612569 6.096604
vertex 10.432346 -2.908569 8.369604
endloop
endfacet
facet normal 0.608743 0.184999 0.771497
outer loop
vertex 8.203346 0.786431 10.234604
vertex 10.432346 1.229431 8.369604
vertex 7.728346 2.349431 10.234604
endloop
endfacet
facet normal 0.633079 0.062295 0.771576
outer loop
vertex 8.363346 -0.839569 10.234604
vertex 10.636347 -0.839569 8.369604
vertex 8.203346 0.786431 10.234604
endloop
endfacet
facet normal 0.633128 0.062426 0.771526
outer loop
vertex 10.636347 -0.839569 8.369604
vertex 10.432346 1.229431 8.369604
vertex 8.203346 0.786431 10.234604
endloop
endfacet
facet normal 0.770842 0.076004 0.632476
outer loop
vertex 12.501347 -0.839569 6.096604
vertex 10.432346 1.229431 8.369604
vertex 10.636347 -0.839569 8.369604
endloop
endfacet
facet normal 0.471017 -0.046348 0.880906
outer loop
vertex 8.203346 -2.465569 10.234604
vertex 8.363346 -0.839569 10.234604
vertex 5.769346 -0.839569 11.621605
endloop
endfacet
facet normal 0.471061 -0.046265 0.880886
outer loop
vertex 5.659347 -1.959569 11.621605
vertex 8.203346 -2.465569 10.234604
vertex 5.769346 -0.839569 11.621605
endloop
endfacet
facet normal 0.452912 0.137514 0.880886
outer loop
vertex 8.203346 0.786431 10.234604
vertex 5.332346 1.357431 11.621605
vertex 5.659347 0.280431 11.621605
endloop
endfacet
facet normal 0.452925 0.137645 0.880859
outer loop
vertex 8.203346 0.786431 10.234604
vertex 7.728346 2.349431 10.234604
vertex 5.332346 1.357431 11.621605
endloop
endfacet
facet normal 0.289982 0.028480 0.956608
outer loop
vertex 5.769346 -0.839569 11.621605
vertex 5.659347 0.280431 11.621605
vertex 2.899346 -0.268569 12.474604
endloop
endfacet
facet normal 0.471019 0.046260 0.880909
outer loop
vertex 5.769346 -0.839569 11.621605
vertex 8.363346 -0.839569 10.234604
vertex 5.659347 0.280431 11.621605
endloop
endfacet
facet normal 0.471046 0.046351 0.880890
outer loop
vertex 8.363346 -0.839569 10.234604
vertex 8.203346 0.786431 10.234604
vertex 5.659347 0.280431 11.621605
endloop
endfacet
facet normal 0.770694 -0.075990 0.632658
outer loop
vertex 12.262346 -3.272569 6.096604
vertex 10.636347 -0.839569 8.369604
vertex 10.432346 -2.908569 8.369604
endloop
endfacet
facet normal 0.770858 -0.075723 0.632490
outer loop
vertex 12.501347 -0.839569 6.096604
vertex 10.636347 -0.839569 8.369604
vertex 12.262346 -3.272569 6.096604
endloop
endfacet
facet normal 0.608864 -0.184495 0.771522
outer loop
vertex 9.829347 -4.898569 8.369604
vertex 10.432346 -2.908569 8.369604
vertex 8.203346 -2.465569 10.234604
endloop
endfacet
facet normal 0.741075 -0.224856 0.632651
outer loop
vertex 12.262346 -3.272569 6.096604
vertex 10.432346 -2.908569 8.369604
vertex 11.552346 -5.612569 6.096604
endloop
endfacet
facet normal 0.844851 -0.256343 0.469590
outer loop
vertex 11.552346 -5.612569 6.096604
vertex 12.833346 -6.142570 3.502604
vertex 12.262346 -3.272569 6.096604
endloop
endfacet
facet normal 0.683027 -0.365274 0.632495
outer loop
vertex 9.829347 -4.898569 8.369604
vertex 10.399346 -7.768570 6.096604
vertex 11.552346 -5.612569 6.096604
endloop
endfacet
facet normal 0.778526 -0.416345 0.469632
outer loop
vertex 10.399346 -7.768570 6.096604
vertex 11.552346 -8.538568 3.502604
vertex 11.552346 -5.612569 6.096604
endloop
endfacet
facet normal 0.778609 -0.416277 0.469555
outer loop
vertex 11.552346 -8.538568 3.502604
vertex 12.833346 -6.142570 3.502604
vertex 11.552346 -5.612569 6.096604
endloop
endfacet
facet normal 0.452886 -0.137633 0.880881
outer loop
vertex 7.728346 -4.028569 10.234604
vertex 8.203346 -2.465569 10.234604
vertex 5.659347 -1.959569 11.621605
endloop
endfacet
facet normal 0.452970 -0.137531 0.880854
outer loop
vertex 5.332346 -3.036569 11.621605
vertex 7.728346 -4.028569 10.234604
vertex 5.659347 -1.959569 11.621605
endloop
endfacet
facet normal 0.608472 -0.184916 0.771730
outer loop
vertex 8.203346 -2.465569 10.234604
vertex 7.728346 -4.028569 10.234604
vertex 9.829347 -4.898569 8.369604
endloop
endfacet
facet normal 0.417557 -0.223090 0.880839
outer loop
vertex 5.332346 -3.036569 11.621605
vertex 4.802346 -4.028569 11.621605
vertex 6.958346 -5.469569 10.234604
endloop
endfacet
facet normal 0.417533 -0.223109 0.880845
outer loop
vertex 6.958346 -5.469569 10.234604
vertex 7.728346 -4.028569 10.234604
vertex 5.332346 -3.036569 11.621605
endloop
endfacet
facet normal 0.560802 -0.299971 0.771699
outer loop
vertex 8.848347 -6.732569 8.369604
vertex 9.829347 -4.898569 8.369604
vertex 7.728346 -4.028569 10.234604
endloop
endfacet
facet normal 0.598678 -0.491386 0.632554
outer loop
vertex 7.529346 -8.339569 8.369604
vertex 8.848347 -9.658569 6.096604
vertex 8.848347 -6.732569 8.369604
endloop
endfacet
facet normal 0.598749 -0.491353 0.632513
outer loop
vertex 8.848347 -6.732569 8.369604
vertex 8.848347 -9.658569 6.096604
vertex 10.399346 -7.768570 6.096604
endloop
endfacet
facet normal 0.491334 -0.598724 0.632551
outer loop
vertex 6.958346 -11.209570 6.096604
vertex 8.848347 -9.658569 6.096604
vertex 7.529346 -8.339569 8.369604
endloop
endfacet
facet normal 0.491409 -0.598707 0.632509
outer loop
vertex 7.529346 -8.339569 8.369604
vertex 5.922347 -9.658569 8.369604
vertex 6.958346 -11.209570 6.096604
endloop
endfacet
facet normal 0.300025 -0.560904 0.771603
outer loop
vertex 4.088346 -10.639568 8.369604
vertex 5.922347 -9.658569 8.369604
vertex 4.659347 -7.768570 10.234604
endloop
endfacet
facet normal 0.365259 -0.683001 0.632531
outer loop
vertex 4.802346 -12.362570 6.096604
vertex 6.958346 -11.209570 6.096604
vertex 5.922347 -9.658569 8.369604
endloop
endfacet
facet normal 0.365333 -0.682998 0.632492
outer loop
vertex 4.088346 -10.639568 8.369604
vertex 4.802346 -12.362570 6.096604
vertex 5.922347 -9.658569 8.369604
endloop
endfacet
facet normal 0.224894 -0.741198 0.632494
outer loop
vertex 2.462347 -13.072569 6.096604
vertex 4.802346 -12.362570 6.096604
vertex 4.088346 -10.639568 8.369604
endloop
endfacet
facet normal 0.256170 -0.844908 0.469583
outer loop
vertex 2.733346 -14.431568 3.502604
vertex 5.332346 -13.643570 3.502604
vertex 4.802346 -12.362570 6.096604
endloop
endfacet
facet normal 0.256367 -0.844927 0.469441
outer loop
vertex 2.462347 -13.072569 6.096604
vertex 2.733346 -14.431568 3.502604
vertex 4.802346 -12.362570 6.096604
endloop
endfacet
facet normal 0.769196 -0.631507 0.097657
outer loop
vertex 12.262346 -9.013569 0.688604
vertex 10.432346 -11.242569 0.688604
vertex 10.636347 -11.446569 -2.237396
endloop
endfacet
facet normal 0.769405 -0.631297 0.097367
outer loop
vertex 10.636347 -11.446569 -2.237396
vertex 12.501347 -9.173569 -2.237396
vertex 12.262346 -9.013569 0.688604
endloop
endfacet
facet normal 0.631227 -0.769426 0.097653
outer loop
vertex 8.988346 -12.798569 -2.237396
vertex 10.636347 -11.446569 -2.237396
vertex 10.432346 -11.242569 0.688604
endloop
endfacet
facet normal 0.631435 -0.769292 0.097365
outer loop
vertex 8.203346 -13.072569 0.688604
vertex 8.363346 -13.311569 -2.237396
vertex 8.988346 -12.798569 -2.237396
endloop
endfacet
facet normal 0.631523 -0.769216 0.097396
outer loop
vertex 10.432346 -11.242569 0.688604
vertex 8.203346 -13.072569 0.688604
vertex 8.988346 -12.798569 -2.237396
endloop
endfacet
facet normal 0.468926 -0.877814 0.097731
outer loop
vertex 5.769346 -14.698568 -2.237396
vertex 8.203346 -13.072569 0.688604
vertex 5.659347 -14.431568 0.688604
endloop
endfacet
facet normal 0.469283 -0.877665 0.097351
outer loop
vertex 5.769346 -14.698568 -2.237396
vertex 8.363346 -13.311569 -2.237396
vertex 8.203346 -13.072569 0.688604
endloop
endfacet
facet normal 0.288703 -0.952414 0.097762
outer loop
vertex 5.769346 -14.698568 -2.237396
vertex 5.659347 -14.431568 0.688604
vertex 2.955347 -15.551569 -2.237396
endloop
endfacet
facet normal 0.289148 -0.952325 0.097317
outer loop
vertex 5.659347 -14.431568 0.688604
vertex 2.899346 -15.269569 0.688604
vertex 2.955347 -15.551569 -2.237396
endloop
endfacet
facet normal 0.682389 -0.559993 0.469844
outer loop
vertex 8.848347 -9.658569 6.096604
vertex 9.829347 -10.639568 3.502604
vertex 10.399346 -7.768570 6.096604
endloop
endfacet
facet normal 0.682666 -0.559844 0.469619
outer loop
vertex 9.829347 -10.639568 3.502604
vertex 11.552346 -8.538568 3.502604
vertex 10.399346 -7.768570 6.096604
endloop
endfacet
facet normal 0.739862 -0.607424 0.289207
outer loop
vertex 10.432346 -11.242569 0.688604
vertex 12.262346 -9.013569 0.688604
vertex 11.552346 -8.538568 3.502604
endloop
endfacet
facet normal 0.740303 -0.607112 0.288732
outer loop
vertex 9.829347 -10.639568 3.502604
vertex 10.432346 -11.242569 0.688604
vertex 11.552346 -8.538568 3.502604
endloop
endfacet
facet normal 0.559773 -0.682577 0.469832
outer loop
vertex 7.728346 -12.362570 3.502604
vertex 9.829347 -10.639568 3.502604
vertex 8.848347 -9.658569 6.096604
endloop
endfacet
facet normal 0.560072 -0.682486 0.469607
outer loop
vertex 6.958346 -11.209570 6.096604
vertex 7.728346 -12.362570 3.502604
vertex 8.848347 -9.658569 6.096604
endloop
endfacet
facet normal 0.607019 -0.740189 0.289221
outer loop
vertex 8.203346 -13.072569 0.688604
vertex 9.829347 -10.639568 3.502604
vertex 7.728346 -12.362570 3.502604
endloop
endfacet
facet normal 0.607512 -0.739970 0.288746
outer loop
vertex 9.829347 -10.639568 3.502604
vertex 8.203346 -13.072569 0.688604
vertex 10.432346 -11.242569 0.688604
endloop
endfacet
facet normal 0.416258 -0.778575 0.469628
outer loop
vertex 7.728346 -12.362570 3.502604
vertex 6.958346 -11.209570 6.096604
vertex 5.332346 -13.643570 3.502604
endloop
endfacet
facet normal 0.416366 -0.778564 0.469551
outer loop
vertex 4.802346 -12.362570 6.096604
vertex 5.332346 -13.643570 3.502604
vertex 6.958346 -11.209570 6.096604
endloop
endfacet
facet normal 0.451051 -0.844352 0.289175
outer loop
vertex 5.659347 -14.431568 0.688604
vertex 8.203346 -13.072569 0.688604
vertex 7.728346 -12.362570 3.502604
endloop
endfacet
facet normal 0.451385 -0.844277 0.288874
outer loop
vertex 7.728346 -12.362570 3.502604
vertex 5.332346 -13.643570 3.502604
vertex 5.659347 -14.431568 0.688604
endloop
endfacet
facet normal 0.277752 -0.916090 0.289194
outer loop
vertex 5.332346 -13.643570 3.502604
vertex 2.733346 -14.431568 3.502604
vertex 2.899346 -15.269569 0.688604
endloop
endfacet
facet normal 0.278143 -0.916080 0.288849
outer loop
vertex 5.659347 -14.431568 0.688604
vertex 5.332346 -13.643570 3.502604
vertex 2.899346 -15.269569 0.688604
endloop
endfacet
facet normal -0.300025 0.560904 0.771603
outer loop
vertex -5.863653 7.979431 8.369604
vertex -4.600654 6.089431 10.234604
vertex -4.029654 8.960431 8.369604
endloop
endfacet
facet normal -0.137645 0.452925 0.880859
outer loop
vertex -1.596653 7.334431 10.234604
vertex -3.159654 6.859431 10.234604
vertex -2.167654 4.463431 11.621605
endloop
endfacet
facet normal -0.184430 0.608651 0.771705
outer loop
vertex -4.029654 8.960431 8.369604
vertex -3.159654 6.859431 10.234604
vertex -2.039653 9.563431 8.369604
endloop
endfacet
facet normal 0.272799 -0.112998 0.955412
outer loop
vertex 4.802346 -4.028569 11.621605
vertex 2.899346 -1.410569 12.474604
vertex 2.462347 -2.465569 12.474604
endloop
endfacet
facet normal -0.079064 -0.064913 0.994754
outer loop
vertex -1.596653 -3.272569 12.474604
vertex 0.029346 -0.839569 12.762604
vertex -2.674654 -1.959569 12.474604
endloop
endfacet
facet normal -0.097936 -0.019412 0.995003
outer loop
vertex 0.029346 -0.839569 12.762604
vertex -2.896654 -0.839569 12.474604
vertex -2.674654 -1.959569 12.474604
endloop
endfacet
facet normal -0.097911 0.029687 0.994752
outer loop
vertex 0.029346 -0.839569 12.762604
vertex -2.403654 0.786431 12.474604
vertex -2.896654 -0.839569 12.474604
endloop
endfacet
facet normal 0.070598 0.070599 0.995003
outer loop
vertex 0.029346 -0.839569 12.762604
vertex 2.462347 0.786431 12.474604
vertex 1.655346 1.593431 12.474604
endloop
endfacet
facet normal 0.208803 0.208804 0.955407
outer loop
vertex 2.462347 0.786431 12.474604
vertex 4.802346 2.349431 11.621605
vertex 1.655346 1.593431 12.474604
endloop
endfacet
facet normal 0.092245 0.038210 0.995003
outer loop
vertex 0.029346 -0.839569 12.762604
vertex 2.899346 -0.268569 12.474604
vertex 2.462347 0.786431 12.474604
endloop
endfacet
facet normal 0.268980 0.081668 0.959677
outer loop
vertex 5.659347 0.280431 11.621605
vertex 5.332346 1.357431 11.621605
vertex 2.462347 0.786431 12.474604
endloop
endfacet
facet normal 0.272800 0.112999 0.955412
outer loop
vertex 5.659347 0.280431 11.621605
vertex 2.462347 0.786431 12.474604
vertex 2.899346 -0.268569 12.474604
endloop
endfacet
facet normal 0.099847 0.000000 0.995003
outer loop
vertex 0.029346 -0.839569 12.762604
vertex 2.899346 -1.410569 12.474604
vertex 2.899346 -0.268569 12.474604
endloop
endfacet
facet normal 0.284895 0.000000 0.958559
outer loop
vertex 2.899346 -1.410569 12.474604
vertex 5.769346 -0.839569 11.621605
vertex 2.899346 -0.268569 12.474604
endloop
endfacet
facet normal -0.279768 -0.027477 0.959674
outer loop
vertex -5.710653 -0.839569 11.621605
vertex -5.600654 -1.959569 11.621605
vertex -2.674654 -1.959569 12.474604
endloop
endfacet
facet normal -0.289614 -0.057406 0.955421
outer loop
vertex -2.896654 -0.839569 12.474604
vertex -5.710653 -0.839569 11.621605
vertex -2.674654 -1.959569 12.474604
endloop
endfacet
facet normal -0.070598 0.070599 0.995003
outer loop
vertex -1.596653 1.593431 12.474604
vertex -2.403654 0.786431 12.474604
vertex 0.029346 -0.839569 12.762604
endloop
endfacet
facet normal -0.178323 0.217285 0.959681
outer loop
vertex -3.159654 3.933431 11.621605
vertex -4.029654 3.219431 11.621605
vertex -2.403654 0.786431 12.474604
endloop
endfacet
facet normal -0.208804 0.208804 0.955407
outer loop
vertex -1.596653 1.593431 12.474604
vertex -3.159654 3.933431 11.621605
vertex -2.403654 0.786431 12.474604
endloop
endfacet
facet normal -0.038211 0.092245 0.995003
outer loop
vertex 0.029346 -0.839569 12.762604
vertex -0.541654 2.030431 12.474604
vertex -1.596653 1.593431 12.474604
endloop
endfacet
facet normal 0.070598 -0.070599 0.995003
outer loop
vertex 0.029346 -0.839569 12.762604
vertex 1.655346 -3.272569 12.474604
vertex 2.462347 -2.465569 12.474604
endloop
endfacet
facet normal 0.208805 -0.208804 0.955406
outer loop
vertex 3.218347 -5.612569 11.621605
vertex 2.462347 -2.465569 12.474604
vertex 1.655346 -3.272569 12.474604
endloop
endfacet
facet normal 0.137306 -0.256997 0.956608
outer loop
vertex 1.655346 -3.272569 12.474604
vertex 2.226346 -6.142570 11.621605
vertex 3.218347 -5.612569 11.621605
endloop
endfacet
facet normal 0.223083 -0.417544 0.880846
outer loop
vertex 3.218347 -5.612569 11.621605
vertex 2.226346 -6.142570 11.621605
vertex 3.218347 -8.538568 10.234604
endloop
endfacet
facet normal 0.038211 -0.092245 0.995003
outer loop
vertex 0.600347 -3.709569 12.474604
vertex 1.655346 -3.272569 12.474604
vertex 0.029346 -0.839569 12.762604
endloop
endfacet
facet normal 0.081668 -0.268979 0.959677
outer loop
vertex 1.149346 -6.469569 11.621605
vertex 2.226346 -6.142570 11.621605
vertex 1.655346 -3.272569 12.474604
endloop
endfacet
facet normal 0.112998 -0.272800 0.955412
outer loop
vertex 0.600347 -3.709569 12.474604
vertex 1.149346 -6.469569 11.621605
vertex 1.655346 -3.272569 12.474604
endloop
endfacet
facet normal 0.137513 -0.452912 0.880886
outer loop
vertex 2.226346 -6.142570 11.621605
vertex 1.149346 -6.469569 11.621605
vertex 1.655346 -9.013569 10.234604
endloop
endfacet
facet normal 0.137645 -0.452925 0.880859
outer loop
vertex 1.655346 -9.013569 10.234604
vertex 3.218347 -8.538568 10.234604
vertex 2.226346 -6.142570 11.621605
endloop
endfacet
facet normal 0.028479 -0.289982 0.956608
outer loop
vertex 1.149346 -6.469569 11.621605
vertex 0.600347 -3.709569 12.474604
vertex 0.029346 -6.579569 11.621605
endloop
endfacet
facet normal 0.046261 -0.471019 0.880909
outer loop
vertex 0.029346 -9.173569 10.234604
vertex 1.149346 -6.469569 11.621605
vertex 0.029346 -6.579569 11.621605
endloop
endfacet
facet normal 0.000000 -0.099847 0.995003
outer loop
vertex 0.029346 -0.839569 12.762604
vertex -0.541654 -3.709569 12.474604
vertex 0.600347 -3.709569 12.474604
endloop
endfacet
facet normal -0.027475 -0.279761 0.959676
outer loop
vertex -1.090653 -6.469569 11.621605
vertex 0.029346 -6.579569 11.621605
vertex 0.600347 -3.709569 12.474604
endloop
endfacet
facet normal 0.000000 -0.295277 0.955412
outer loop
vertex -0.541654 -3.709569 12.474604
vertex -1.090653 -6.469569 11.621605
vertex 0.600347 -3.709569 12.474604
endloop
endfacet
facet normal -0.084652 -0.278809 0.956608
outer loop
vertex -0.541654 -3.709569 12.474604
vertex -2.167654 -6.142570 11.621605
vertex -1.090653 -6.469569 11.621605
endloop
endfacet
facet normal -0.038211 -0.092245 0.995003
outer loop
vertex 0.029346 -0.839569 12.762604
vertex -1.596653 -3.272569 12.474604
vertex -0.541654 -3.709569 12.474604
endloop
endfacet
facet normal -0.132463 -0.247932 0.959679
outer loop
vertex -3.159654 -5.612569 11.621605
vertex -2.167654 -6.142570 11.621605
vertex -0.541654 -3.709569 12.474604
endloop
endfacet
facet normal -0.112998 -0.272799 0.955412
outer loop
vertex -1.596653 -3.272569 12.474604
vertex -3.159654 -5.612569 11.621605
vertex -0.541654 -3.709569 12.474604
endloop
endfacet
facet normal -0.184851 -0.225240 0.956607
outer loop
vertex -3.159654 -5.612569 11.621605
vertex -1.596653 -3.272569 12.474604
vertex -4.029654 -4.898569 11.621605
endloop
endfacet
facet normal -0.300227 -0.366009 0.880853
outer loop
vertex -5.863653 -6.732569 10.234604
vertex -4.600654 -7.768570 10.234604
vertex -3.159654 -5.612569 11.621605
endloop
endfacet
facet normal -0.403487 -0.491895 0.771517
outer loop
vertex -5.863653 -6.732569 10.234604
vertex -7.470654 -8.339569 8.369604
vertex -4.600654 -7.768570 10.234604
endloop
endfacet
facet normal -0.491812 -0.403418 0.771605
outer loop
vertex -6.899653 -5.469569 10.234604
vertex -8.789654 -6.732569 8.369604
vertex -5.863653 -6.732569 10.234604
endloop
endfacet
facet normal -0.491762 -0.403631 0.771526
outer loop
vertex -8.789654 -6.732569 8.369604
vertex -7.470654 -8.339569 8.369604
vertex -5.863653 -6.732569 10.234604
endloop
endfacet
facet normal -0.598706 -0.491409 0.632509
outer loop
vertex -7.470654 -8.339569 8.369604
vertex -8.789654 -6.732569 8.369604
vertex -10.340653 -7.768570 6.096604
endloop
endfacet
facet normal -0.417541 -0.223114 0.880840
outer loop
vertex -7.669654 -4.028569 10.234604
vertex -6.899653 -5.469569 10.234604
vertex -4.743653 -4.028569 11.621605
endloop
endfacet
facet normal -0.560915 -0.299726 0.771712
outer loop
vertex -7.669654 -4.028569 10.234604
vertex -9.770654 -4.898569 8.369604
vertex -6.899653 -5.469569 10.234604
endloop
endfacet
facet normal -0.560904 -0.300025 0.771603
outer loop
vertex -8.789654 -6.732569 8.369604
vertex -6.899653 -5.469569 10.234604
vertex -9.770654 -4.898569 8.369604
endloop
endfacet
facet normal -0.683001 -0.365259 0.632531
outer loop
vertex -10.340653 -7.768570 6.096604
vertex -8.789654 -6.732569 8.369604
vertex -11.493653 -5.612569 6.096604
endloop
endfacet
facet normal -0.682998 -0.365334 0.632491
outer loop
vertex -8.789654 -6.732569 8.369604
vertex -9.770654 -4.898569 8.369604
vertex -11.493653 -5.612569 6.096604
endloop
endfacet
facet normal -0.741148 -0.224578 0.632665
outer loop
vertex -9.770654 -4.898569 8.369604
vertex -10.373653 -2.908569 8.369604
vertex -12.203653 -3.272569 6.096604
endloop
endfacet
facet normal -0.741198 -0.224894 0.632493
outer loop
vertex -9.770654 -4.898569 8.369604
vertex -12.203653 -3.272569 6.096604
vertex -11.493653 -5.612569 6.096604
endloop
endfacet
facet normal -0.778575 -0.416258 0.469628
outer loop
vertex -12.774654 -6.142570 3.502604
vertex -11.493653 -8.538568 3.502604
vertex -10.340653 -7.768570 6.096604
endloop
endfacet
facet normal -0.844927 -0.256367 0.469441
outer loop
vertex -12.203653 -3.272569 6.096604
vertex -13.562653 -3.543570 3.502604
vertex -11.493653 -5.612569 6.096604
endloop
endfacet
facet normal -0.952283 0.289136 0.097766
outer loop
vertex -14.400654 2.030431 0.688604
vertex -13.562653 4.790431 0.688604
vertex -13.829653 4.900431 -2.237396
endloop
endfacet
facet normal -0.952456 0.288716 0.097321
outer loop
vertex -13.829653 4.900431 -2.237396
vertex -14.682653 2.086431 -2.237396
vertex -14.400654 2.030431 0.688604
endloop
endfacet
facet normal -0.877633 0.469266 0.097726
outer loop
vertex -12.442654 7.494431 -2.237396
vertex -13.829653 4.900431 -2.237396
vertex -13.562653 4.790431 0.688604
endloop
endfacet
facet normal -0.915983 0.278115 0.289183
outer loop
vertex -13.562653 4.790431 0.688604
vertex -14.400654 2.030431 0.688604
vertex -13.562653 1.864431 3.502604
endloop
endfacet
facet normal -0.916193 0.277783 0.288839
outer loop
vertex -12.774654 4.463431 3.502604
vertex -13.562653 4.790431 0.688604
vertex -13.562653 1.864431 3.502604
endloop
endfacet
facet normal -0.877814 -0.468926 0.097730
outer loop
vertex -13.829653 -6.579569 -2.237396
vertex -12.203653 -9.013569 0.688604
vertex -13.562653 -6.469569 0.688604
endloop
endfacet
facet normal -0.952414 -0.288703 0.097762
outer loop
vertex -14.682653 -3.765569 -2.237396
vertex -13.829653 -6.579569 -2.237396
vertex -13.562653 -6.469569 0.688604
endloop
endfacet
facet normal -0.952325 -0.289149 0.097316
outer loop
vertex -14.400654 -3.709569 0.688604
vertex -14.682653 -3.765569 -2.237396
vertex -13.562653 -6.469569 0.688604
endloop
endfacet
facet normal -0.990434 -0.097317 0.097825
outer loop
vertex -14.400654 -3.709569 0.688604
vertex -14.682653 -0.839569 0.688604
vertex -14.971653 -0.839569 -2.237396
endloop
endfacet
facet normal -0.990433 -0.097824 0.097327
outer loop
vertex -14.682653 -3.765569 -2.237396
vertex -14.400654 -3.709569 0.688604
vertex -14.971653 -0.839569 -2.237396
endloop
endfacet
facet normal -0.990385 0.097820 0.097820
outer loop
vertex -14.682653 2.086431 -2.237396
vertex -14.971653 -0.839569 -2.237396
vertex -14.682653 -0.839569 0.688604
endloop
endfacet
facet normal -0.990483 0.097322 0.097323
outer loop
vertex -14.682653 2.086431 -2.237396
vertex -14.682653 -0.839569 0.688604
vertex -14.400654 2.030431 0.688604
endloop
endfacet
facet normal -0.778564 -0.416366 0.469551
outer loop
vertex -11.493653 -5.612569 6.096604
vertex -12.774654 -6.142570 3.502604
vertex -10.340653 -7.768570 6.096604
endloop
endfacet
facet normal -0.844276 -0.451386 0.288874
outer loop
vertex -12.774654 -6.142570 3.502604
vertex -13.562653 -6.469569 0.688604
vertex -11.493653 -8.538568 3.502604
endloop
endfacet
facet normal -0.844908 -0.256170 0.469583
outer loop
vertex -13.562653 -3.543570 3.502604
vertex -12.774654 -6.142570 3.502604
vertex -11.493653 -5.612569 6.096604
endloop
endfacet
facet normal -0.916090 -0.277752 0.289194
outer loop
vertex -13.562653 -3.543570 3.502604
vertex -14.400654 -3.709569 0.688604
vertex -12.774654 -6.142570 3.502604
endloop
endfacet
facet normal -0.916080 -0.278143 0.288850
outer loop
vertex -14.400654 -3.709569 0.688604
vertex -13.562653 -6.469569 0.688604
vertex -12.774654 -6.142570 3.502604
endloop
endfacet
facet normal -0.878703 -0.086766 0.469418
outer loop
vertex -12.203653 -3.272569 6.096604
vertex -13.829653 -0.839569 3.502604
vertex -13.562653 -3.543570 3.502604
endloop
endfacet
facet normal -0.952673 -0.093608 0.289225
outer loop
vertex -14.682653 -0.839569 0.688604
vertex -14.400654 -3.709569 0.688604
vertex -13.562653 -3.543570 3.502604
endloop
endfacet
facet normal -0.952754 -0.094077 0.288806
outer loop
vertex -13.829653 -0.839569 3.502604
vertex -14.682653 -0.839569 0.688604
vertex -13.562653 -3.543570 3.502604
endloop
endfacet
facet normal -0.878529 0.086748 0.469745
outer loop
vertex -13.562653 1.864431 3.502604
vertex -13.829653 -0.839569 3.502604
vertex -12.442654 -0.839569 6.096604
endloop
endfacet
facet normal -0.952624 0.094064 0.289238
outer loop
vertex -13.562653 1.864431 3.502604
vertex -14.400654 2.030431 0.688604
vertex -13.829653 -0.839569 3.502604
endloop
endfacet
facet normal 0.877665 0.469284 0.097350
outer loop
vertex 12.262346 7.334431 0.688604
vertex 13.888347 4.900431 -2.237396
vertex 12.501347 7.494431 -2.237396
endloop
endfacet
facet normal 0.952414 0.288703 0.097762
outer loop
vertex 14.741346 2.086431 -2.237396
vertex 13.888347 4.900431 -2.237396
vertex 13.621346 4.790431 0.688604
endloop
endfacet
facet normal 0.952325 0.289148 0.097316
outer loop
vertex 13.621346 4.790431 0.688604
vertex 14.459347 2.030431 0.688604
vertex 14.741346 2.086431 -2.237396
endloop
endfacet
facet normal 0.990466 0.097490 0.097324
outer loop
vertex 14.459347 2.030431 0.688604
vertex 15.029346 -0.839569 -2.237396
vertex 14.741346 2.086431 -2.237396
endloop
endfacet
facet normal 0.559992 0.682389 0.469844
outer loop
vertex 6.958346 9.530431 6.096604
vertex 8.848347 7.979431 6.096604
vertex 9.829347 8.960431 3.502604
endloop
endfacet
facet normal 0.559844 0.682665 0.469620
outer loop
vertex 9.829347 8.960431 3.502604
vertex 7.728346 10.683431 3.502604
vertex 6.958346 9.530431 6.096604
endloop
endfacet
facet normal 0.607112 0.740303 0.288731
outer loop
vertex 7.728346 10.683431 3.502604
vertex 9.829347 8.960431 3.502604
vertex 10.432346 9.563431 0.688604
endloop
endfacet
facet normal 0.682578 0.559772 0.469833
outer loop
vertex 11.552346 6.859431 3.502604
vertex 9.829347 8.960431 3.502604
vertex 8.848347 7.979431 6.096604
endloop
endfacet
facet normal 0.682486 0.560072 0.469607
outer loop
vertex 11.552346 6.859431 3.502604
vertex 8.848347 7.979431 6.096604
vertex 10.399346 6.089431 6.096604
endloop
endfacet
facet normal 0.740189 0.607019 0.289221
outer loop
vertex 9.829347 8.960431 3.502604
vertex 11.552346 6.859431 3.502604
vertex 12.262346 7.334431 0.688604
endloop
endfacet
facet normal 0.739969 0.607512 0.288746
outer loop
vertex 9.829347 8.960431 3.502604
vertex 12.262346 7.334431 0.688604
vertex 10.432346 9.563431 0.688604
endloop
endfacet
facet normal 0.778575 0.416258 0.469628
outer loop
vertex 12.833346 4.463431 3.502604
vertex 11.552346 6.859431 3.502604
vertex 10.399346 6.089431 6.096604
endloop
endfacet
facet normal 0.844352 0.451051 0.289175
outer loop
vertex 12.262346 7.334431 0.688604
vertex 11.552346 6.859431 3.502604
vertex 13.621346 4.790431 0.688604
endloop
endfacet
facet normal 0.844276 0.451385 0.288875
outer loop
vertex 12.833346 4.463431 3.502604
vertex 13.621346 4.790431 0.688604
vertex 11.552346 6.859431 3.502604
endloop
endfacet
facet normal 0.778564 0.416366 0.469551
outer loop
vertex 12.833346 4.463431 3.502604
vertex 10.399346 6.089431 6.096604
vertex 11.552346 3.933431 6.096604
endloop
endfacet
facet normal 0.844908 0.256170 0.469583
outer loop
vertex 13.621346 1.864431 3.502604
vertex 12.833346 4.463431 3.502604
vertex 11.552346 3.933431 6.096604
endloop
endfacet
facet normal 0.916090 0.277752 0.289194
outer loop
vertex 13.621346 1.864431 3.502604
vertex 14.459347 2.030431 0.688604
vertex 12.833346 4.463431 3.502604
endloop
endfacet
facet normal 0.916080 0.278143 0.288850
outer loop
vertex 13.621346 4.790431 0.688604
vertex 12.833346 4.463431 3.502604
vertex 14.459347 2.030431 0.688604
endloop
endfacet
facet normal 0.844926 0.256367 0.469441
outer loop
vertex 11.552346 3.933431 6.096604
vertex 12.262346 1.593431 6.096604
vertex 13.621346 1.864431 3.502604
endloop
endfacet
facet normal -0.300287 -0.365896 0.880879
outer loop
vertex -5.863653 -6.732569 10.234604
vertex -3.159654 -5.612569 11.621605
vertex -4.029654 -4.898569 11.621605
endloop
endfacet
facet normal -0.217285 -0.178323 0.959681
outer loop
vertex -4.743653 -4.028569 11.621605
vertex -4.029654 -4.898569 11.621605
vertex -1.596653 -3.272569 12.474604
endloop
endfacet
facet normal -0.365941 -0.300324 0.880848
outer loop
vertex -4.029654 -4.898569 11.621605
vertex -4.743653 -4.028569 11.621605
vertex -6.899653 -5.469569 10.234604
endloop
endfacet
facet normal -0.217268 -0.178382 0.959674
outer loop
vertex -4.743653 -4.028569 11.621605
vertex -1.596653 -3.272569 12.474604
vertex -2.674654 -1.959569 12.474604
endloop
endfacet
facet normal -0.365978 -0.300201 0.880874
outer loop
vertex -4.029654 -4.898569 11.621605
vertex -6.899653 -5.469569 10.234604
vertex -5.863653 -6.732569 10.234604
endloop
endfacet
facet normal -0.257046 -0.137333 0.956591
outer loop
vertex -2.674654 -1.959569 12.474604
vertex -5.273654 -3.036569 11.621605
vertex -4.743653 -4.028569 11.621605
endloop
endfacet
facet normal -0.417544 -0.223083 0.880846
outer loop
vertex -5.273654 -3.036569 11.621605
vertex -7.669654 -4.028569 10.234604
vertex -4.743653 -4.028569 11.621605
endloop
endfacet
facet normal -0.278869 -0.084670 0.956589
outer loop
vertex -2.674654 -1.959569 12.474604
vertex -5.600654 -1.959569 11.621605
vertex -5.273654 -3.036569 11.621605
endloop
endfacet
facet normal -0.452912 -0.137514 0.880886
outer loop
vertex -5.600654 -1.959569 11.621605
vertex -8.144653 -2.465569 10.234604
vertex -5.273654 -3.036569 11.621605
endloop
endfacet
facet normal -0.452925 -0.137645 0.880859
outer loop
vertex -8.144653 -2.465569 10.234604
vertex -7.669654 -4.028569 10.234604
vertex -5.273654 -3.036569 11.621605
endloop
endfacet
facet normal -0.471046 -0.046351 0.880890
outer loop
vertex -8.144653 -2.465569 10.234604
vertex -5.600654 -1.959569 11.621605
vertex -8.304653 -0.839569 10.234604
endloop
endfacet
facet normal -0.633079 -0.062296 0.771576
outer loop
vertex -8.304653 -0.839569 10.234604
vertex -10.577654 -0.839569 8.369604
vertex -8.144653 -2.465569 10.234604
endloop
endfacet
facet normal -0.289974 0.028480 0.956611
outer loop
vertex -5.600654 0.280431 11.621605
vertex -5.710653 -0.839569 11.621605
vertex -2.896654 -0.839569 12.474604
endloop
endfacet
facet normal -0.471017 0.046348 0.880906
outer loop
vertex -5.710653 -0.839569 11.621605
vertex -8.144653 0.786431 10.234604
vertex -8.304653 -0.839569 10.234604
endloop
endfacet
facet normal -0.471061 0.046265 0.880886
outer loop
vertex -5.600654 0.280431 11.621605
vertex -8.144653 0.786431 10.234604
vertex -5.710653 -0.839569 11.621605
endloop
endfacet
facet normal -0.268923 0.081651 0.959695
outer loop
vertex -5.273654 1.357431 11.621605
vertex -5.600654 0.280431 11.621605
vertex -2.896654 -0.839569 12.474604
endloop
endfacet
facet normal -0.269002 0.081561 0.959680
outer loop
vertex -5.273654 1.357431 11.621605
vertex -2.896654 -0.839569 12.474604
vertex -2.403654 0.786431 12.474604
endloop
endfacet
facet normal -0.452886 0.137633 0.880881
outer loop
vertex -7.669654 2.349431 10.234604
vertex -8.144653 0.786431 10.234604
vertex -5.600654 0.280431 11.621605
endloop
endfacet
facet normal -0.452970 0.137531 0.880854
outer loop
vertex -5.600654 0.280431 11.621605
vertex -5.273654 1.357431 11.621605
vertex -7.669654 2.349431 10.234604
endloop
endfacet
facet normal -0.608472 0.184916 0.771730
outer loop
vertex -9.770654 3.219431 8.369604
vertex -8.144653 0.786431 10.234604
vertex -7.669654 2.349431 10.234604
endloop
endfacet
facet normal -0.608651 -0.184431 0.771705
outer loop
vertex -10.373653 -2.908569 8.369604
vertex -9.770654 -4.898569 8.369604
vertex -7.669654 -4.028569 10.234604
endloop
endfacet
facet normal -0.608743 -0.184998 0.771497
outer loop
vertex -8.144653 -2.465569 10.234604
vertex -10.373653 -2.908569 8.369604
vertex -7.669654 -4.028569 10.234604
endloop
endfacet
facet normal -0.471019 -0.046261 0.880909
outer loop
vertex -8.304653 -0.839569 10.234604
vertex -5.600654 -1.959569 11.621605
vertex -5.710653 -0.839569 11.621605
endloop
endfacet
facet normal -0.633127 -0.062426 0.771526
outer loop
vertex -8.144653 -2.465569 10.234604
vertex -10.577654 -0.839569 8.369604
vertex -10.373653 -2.908569 8.369604
endloop
endfacet
facet normal -0.770733 -0.075712 0.632644
outer loop
vertex -12.442654 -0.839569 6.096604
vertex -12.203653 -3.272569 6.096604
vertex -10.373653 -2.908569 8.369604
endloop
endfacet
facet normal -0.878564 -0.086303 0.469764
outer loop
vertex -12.442654 -0.839569 6.096604
vertex -13.829653 -0.839569 3.502604
vertex -12.203653 -3.272569 6.096604
endloop
endfacet
facet normal -0.770842 -0.076004 0.632477
outer loop
vertex -12.442654 -0.839569 6.096604
vertex -10.373653 -2.908569 8.369604
vertex -10.577654 -0.839569 8.369604
endloop
endfacet
facet normal -0.633074 0.062421 0.771570
outer loop
vertex -10.373653 1.229431 8.369604
vertex -10.577654 -0.839569 8.369604
vertex -8.304653 -0.839569 10.234604
endloop
endfacet
facet normal -0.770695 0.075990 0.632657
outer loop
vertex -12.203653 1.593431 6.096604
vertex -10.577654 -0.839569 8.369604
vertex -10.373653 1.229431 8.369604
endloop
endfacet
facet normal -0.633147 0.062302 0.771520
outer loop
vertex -8.304653 -0.839569 10.234604
vertex -8.144653 0.786431 10.234604
vertex -10.373653 1.229431 8.369604
endloop
endfacet
facet normal -0.770858 0.075723 0.632490
outer loop
vertex -12.203653 1.593431 6.096604
vertex -12.442654 -0.839569 6.096604
vertex -10.577654 -0.839569 8.369604
endloop
endfacet
facet normal 0.561045 -0.299795 0.771591
outer loop
vertex 6.958346 -5.469569 10.234604
vertex 8.848347 -6.732569 8.369604
vertex 7.728346 -4.028569 10.234604
endloop
endfacet
facet normal 0.225238 -0.184852 0.956607
outer loop
vertex 4.088346 -4.898569 11.621605
vertex 4.802346 -4.028569 11.621605
vertex 2.462347 -2.465569 12.474604
endloop
endfacet
facet normal 0.365896 -0.300287 0.880879
outer loop
vertex 4.088346 -4.898569 11.621605
vertex 5.922347 -6.732569 10.234604
vertex 4.802346 -4.028569 11.621605
endloop
endfacet
facet normal 0.366010 -0.300226 0.880853
outer loop
vertex 6.958346 -5.469569 10.234604
vertex 4.802346 -4.028569 11.621605
vertex 5.922347 -6.732569 10.234604
endloop
endfacet
facet normal 0.491697 -0.403577 0.771596
outer loop
vertex 7.529346 -8.339569 8.369604
vertex 8.848347 -6.732569 8.369604
vertex 6.958346 -5.469569 10.234604
endloop
endfacet
facet normal 0.491895 -0.403487 0.771517
outer loop
vertex 5.922347 -6.732569 10.234604
vertex 7.529346 -8.339569 8.369604
vertex 6.958346 -5.469569 10.234604
endloop
endfacet
facet normal 0.178323 -0.217285 0.959681
outer loop
vertex 2.462347 -2.465569 12.474604
vertex 3.218347 -5.612569 11.621605
vertex 4.088346 -4.898569 11.621605
endloop
endfacet
facet normal 0.300201 -0.365978 0.880874
outer loop
vertex 5.922347 -6.732569 10.234604
vertex 4.088346 -4.898569 11.621605
vertex 4.659347 -7.768570 10.234604
endloop
endfacet
facet normal 0.300324 -0.365941 0.880848
outer loop
vertex 4.659347 -7.768570 10.234604
vertex 4.088346 -4.898569 11.621605
vertex 3.218347 -5.612569 11.621605
endloop
endfacet
facet normal 0.403419 -0.491812 0.771605
outer loop
vertex 4.659347 -7.768570 10.234604
vertex 5.922347 -9.658569 8.369604
vertex 5.922347 -6.732569 10.234604
endloop
endfacet
facet normal 0.403630 -0.491762 0.771526
outer loop
vertex 5.922347 -9.658569 8.369604
vertex 7.529346 -8.339569 8.369604
vertex 5.922347 -6.732569 10.234604
endloop
endfacet
facet normal 0.223113 -0.417542 0.880840
outer loop
vertex 3.218347 -8.538568 10.234604
vertex 4.659347 -7.768570 10.234604
vertex 3.218347 -5.612569 11.621605
endloop
endfacet
facet normal 0.990451 -0.097487 0.097488
outer loop
vertex 14.741346 -3.765569 -2.237396
vertex 15.029346 -0.839569 -2.237396
vertex 14.741346 -0.839569 0.688604
endloop
endfacet
facet normal 0.990483 -0.097323 0.097323
outer loop
vertex 14.741346 -3.765569 -2.237396
vertex 14.741346 -0.839569 0.688604
vertex 14.459347 -3.709569 0.688604
endloop
endfacet
facet normal 0.952283 -0.289136 0.097766
outer loop
vertex 14.459347 -3.709569 0.688604
vertex 13.621346 -6.469569 0.688604
vertex 13.888347 -6.579569 -2.237396
endloop
endfacet
facet normal 0.952456 -0.288715 0.097321
outer loop
vertex 13.888347 -6.579569 -2.237396
vertex 14.741346 -3.765569 -2.237396
vertex 14.459347 -3.709569 0.688604
endloop
endfacet
facet normal 0.877632 -0.469266 0.097726
outer loop
vertex 12.501347 -9.173569 -2.237396
vertex 13.888347 -6.579569 -2.237396
vertex 13.621346 -6.469569 0.688604
endloop
endfacet
facet normal 0.877847 -0.468944 0.097347
outer loop
vertex 13.621346 -6.469569 0.688604
vertex 12.262346 -9.013569 0.688604
vertex 12.501347 -9.173569 -2.237396
endloop
endfacet
facet normal 0.990467 0.097320 0.097490
outer loop
vertex 15.029346 -0.839569 -2.237396
vertex 14.459347 2.030431 0.688604
vertex 14.741346 -0.839569 0.688604
endloop
endfacet
facet normal 0.878529 -0.086749 0.469746
outer loop
vertex 12.501347 -0.839569 6.096604
vertex 13.621346 -3.543570 3.502604
vertex 13.888347 -0.839569 3.502604
endloop
endfacet
facet normal 0.878563 0.086304 0.469764
outer loop
vertex 12.501347 -0.839569 6.096604
vertex 13.888347 -0.839569 3.502604
vertex 12.262346 1.593431 6.096604
endloop
endfacet
facet normal 0.952624 -0.094065 0.289238
outer loop
vertex 13.621346 -3.543570 3.502604
vertex 14.459347 -3.709569 0.688604
vertex 13.888347 -0.839569 3.502604
endloop
endfacet
facet normal 0.952796 -0.093619 0.288818
outer loop
vertex 14.741346 -0.839569 0.688604
vertex 13.888347 -0.839569 3.502604
vertex 14.459347 -3.709569 0.688604
endloop
endfacet
facet normal 0.844976 -0.256192 0.469449
outer loop
vertex 12.833346 -6.142570 3.502604
vertex 13.621346 -3.543570 3.502604
vertex 12.262346 -3.272569 6.096604
endloop
endfacet
facet normal 0.915984 -0.278114 0.289183
outer loop
vertex 13.621346 -6.469569 0.688604
vertex 14.459347 -3.709569 0.688604
vertex 13.621346 -3.543570 3.502604
endloop
endfacet
facet normal 0.916192 -0.277783 0.288840
outer loop
vertex 12.833346 -6.142570 3.502604
vertex 13.621346 -6.469569 0.688604
vertex 13.621346 -3.543570 3.502604
endloop
endfacet
facet normal 0.844194 -0.451341 0.289185
outer loop
vertex 11.552346 -8.538568 3.502604
vertex 12.262346 -9.013569 0.688604
vertex 12.833346 -6.142570 3.502604
endloop
endfacet
facet normal 0.844430 -0.451093 0.288883
outer loop
vertex 12.262346 -9.013569 0.688604
vertex 13.621346 -6.469569 0.688604
vertex 12.833346 -6.142570 3.502604
endloop
endfacet
facet normal 0.878703 0.086765 0.469418
outer loop
vertex 13.888347 -0.839569 3.502604
vertex 13.621346 1.864431 3.502604
vertex 12.262346 1.593431 6.096604
endloop
endfacet
facet normal 0.952673 0.093608 0.289225
outer loop
vertex 14.741346 -0.839569 0.688604
vertex 14.459347 2.030431 0.688604
vertex 13.621346 1.864431 3.502604
endloop
endfacet
facet normal 0.952754 0.094077 0.288806
outer loop
vertex 14.741346 -0.839569 0.688604
vertex 13.621346 1.864431 3.502604
vertex 13.888347 -0.839569 3.502604
endloop
endfacet
facet normal 0.682967 -0.365317 0.632534
outer loop
vertex 8.848347 -6.732569 8.369604
vertex 10.399346 -7.768570 6.096604
vertex 9.829347 -4.898569 8.369604
endloop
endfacet
facet normal -0.224579 0.741147 0.632665
outer loop
vertex -2.403654 11.393431 6.096604
vertex -4.029654 8.960431 8.369604
vertex -2.039653 9.563431 8.369604
endloop
endfacet
facet normal -0.184998 0.608743 0.771497
outer loop
vertex -1.596653 7.334431 10.234604
vertex -2.039653 9.563431 8.369604
vertex -3.159654 6.859431 10.234604
endloop
endfacet
facet normal -0.046351 0.471046 0.880890
outer loop
vertex -1.596653 7.334431 10.234604
vertex -1.090653 4.790431 11.621605
vertex 0.029346 7.494431 10.234604
endloop
endfacet
facet normal -0.062296 0.633079 0.771576
outer loop
vertex 0.029346 7.494431 10.234604
vertex 0.029346 9.767431 8.369604
vertex -1.596653 7.334431 10.234604
endloop
endfacet
facet normal -0.062426 0.633128 0.771526
outer loop
vertex 0.029346 9.767431 8.369604
vertex -2.039653 9.563431 8.369604
vertex -1.596653 7.334431 10.234604
endloop
endfacet
facet normal 0.062303 0.633147 0.771520
outer loop
vertex 0.029346 7.494431 10.234604
vertex 1.655346 7.334431 10.234604
vertex 2.098346 9.563431 8.369604
endloop
endfacet
facet normal 0.062420 0.633075 0.771570
outer loop
vertex 0.029346 7.494431 10.234604
vertex 2.098346 9.563431 8.369604
vertex 0.029346 9.767431 8.369604
endloop
endfacet
facet normal 0.137634 0.452886 0.880881
outer loop
vertex 3.218347 6.859431 10.234604
vertex 1.655346 7.334431 10.234604
vertex 1.149346 4.790431 11.621605
endloop
endfacet
facet normal 0.184916 0.608472 0.771730
outer loop
vertex 4.088346 8.960431 8.369604
vertex 1.655346 7.334431 10.234604
vertex 3.218347 6.859431 10.234604
endloop
endfacet
facet normal 0.184494 0.608864 0.771522
outer loop
vertex 4.088346 8.960431 8.369604
vertex 2.098346 9.563431 8.369604
vertex 1.655346 7.334431 10.234604
endloop
endfacet
facet normal 0.223109 0.417533 0.880845
outer loop
vertex 4.659347 6.089431 10.234604
vertex 3.218347 6.859431 10.234604
vertex 2.226346 4.463431 11.621605
endloop
endfacet
facet normal 0.299795 0.561045 0.771591
outer loop
vertex 5.922347 7.979431 8.369604
vertex 3.218347 6.859431 10.234604
vertex 4.659347 6.089431 10.234604
endloop
endfacet
facet normal 0.299971 0.560802 0.771699
outer loop
vertex 3.218347 6.859431 10.234604
vertex 5.922347 7.979431 8.369604
vertex 4.088346 8.960431 8.369604
endloop
endfacet
facet normal -0.046260 0.471018 0.880910
outer loop
vertex 0.029346 4.900431 11.621605
vertex 0.029346 7.494431 10.234604
vertex -1.090653 4.790431 11.621605
endloop
endfacet
facet normal 0.000000 0.099847 0.995003
outer loop
vertex 0.029346 -0.839569 12.762604
vertex 0.600347 2.030431 12.474604
vertex -0.541654 2.030431 12.474604
endloop
endfacet
facet normal 0.027475 0.279761 0.959677
outer loop
vertex 1.149346 4.790431 11.621605
vertex 0.029346 4.900431 11.621605
vertex -0.541654 2.030431 12.474604
endloop
endfacet
facet normal 0.046265 0.471061 0.880886
outer loop
vertex 1.655346 7.334431 10.234604
vertex 0.029346 4.900431 11.621605
vertex 1.149346 4.790431 11.621605
endloop
endfacet
facet normal 0.000000 0.295277 0.955412
outer loop
vertex 0.600347 2.030431 12.474604
vertex 1.149346 4.790431 11.621605
vertex -0.541654 2.030431 12.474604
endloop
endfacet
facet normal 0.046349 0.471017 0.880906
outer loop
vertex 0.029346 4.900431 11.621605
vertex 1.655346 7.334431 10.234604
vertex 0.029346 7.494431 10.234604
endloop
endfacet
facet normal 0.084652 0.278809 0.956608
outer loop
vertex 0.600347 2.030431 12.474604
vertex 2.226346 4.463431 11.621605
vertex 1.149346 4.790431 11.621605
endloop
endfacet
facet normal 0.137531 0.452969 0.880854
outer loop
vertex 3.218347 6.859431 10.234604
vertex 1.149346 4.790431 11.621605
vertex 2.226346 4.463431 11.621605
endloop
endfacet
facet normal 0.038211 0.092245 0.995003
outer loop
vertex 1.655346 1.593431 12.474604
vertex 0.600347 2.030431 12.474604
vertex 0.029346 -0.839569 12.762604
endloop
endfacet
facet normal 0.132463 0.247932 0.959679
outer loop
vertex 3.218347 3.933431 11.621605
vertex 2.226346 4.463431 11.621605
vertex 0.600347 2.030431 12.474604
endloop
endfacet
facet normal -0.952795 0.093620 0.288818
outer loop
vertex -14.400654 2.030431 0.688604
vertex -14.682653 -0.839569 0.688604
vertex -13.829653 -0.839569 3.502604
endloop
endfacet
facet normal -0.878756 0.086323 0.469400
outer loop
vertex -12.442654 -0.839569 6.096604
vertex -12.203653 1.593431 6.096604
vertex -13.562653 1.864431 3.502604
endloop
endfacet
facet normal 0.299725 -0.560915 0.771712
outer loop
vertex 3.218347 -8.538568 10.234604
vertex 4.088346 -10.639568 8.369604
vertex 4.659347 -7.768570 10.234604
endloop
endfacet
facet normal 0.184431 -0.608651 0.771705
outer loop
vertex 4.088346 -10.639568 8.369604
vertex 3.218347 -8.538568 10.234604
vertex 2.098346 -11.242569 8.369604
endloop
endfacet
facet normal 0.184999 -0.608743 0.771497
outer loop
vertex 1.655346 -9.013569 10.234604
vertex 2.098346 -11.242569 8.369604
vertex 3.218347 -8.538568 10.234604
endloop
endfacet
facet normal 0.224578 -0.741148 0.632665
outer loop
vertex 2.098346 -11.242569 8.369604
vertex 2.462347 -13.072569 6.096604
vertex 4.088346 -10.639568 8.369604
endloop
endfacet
facet normal 0.046351 -0.471046 0.880890
outer loop
vertex 0.029346 -9.173569 10.234604
vertex 1.655346 -9.013569 10.234604
vertex 1.149346 -6.469569 11.621605
endloop
endfacet
facet normal 0.062295 -0.633079 0.771576
outer loop
vertex 0.029346 -9.173569 10.234604
vertex 0.029346 -11.446569 8.369604
vertex 1.655346 -9.013569 10.234604
endloop
endfacet
facet normal 0.062426 -0.633127 0.771526
outer loop
vertex 1.655346 -9.013569 10.234604
vertex 0.029346 -11.446569 8.369604
vertex 2.098346 -11.242569 8.369604
endloop
endfacet
facet normal 0.075711 -0.770733 0.632644
outer loop
vertex 0.029346 -13.311569 6.096604
vertex 2.462347 -13.072569 6.096604
vertex 2.098346 -11.242569 8.369604
endloop
endfacet
facet normal 0.076004 -0.770842 0.632477
outer loop
vertex 0.029346 -11.446569 8.369604
vertex 0.029346 -13.311569 6.096604
vertex 2.098346 -11.242569 8.369604
endloop
endfacet
facet normal -0.062420 -0.633075 0.771570
outer loop
vertex -2.039653 -11.242569 8.369604
vertex 0.029346 -11.446569 8.369604
vertex 0.029346 -9.173569 10.234604
endloop
endfacet
facet normal -0.046348 -0.471017 0.880906
outer loop
vertex -1.596653 -9.013569 10.234604
vertex 0.029346 -9.173569 10.234604
vertex 0.029346 -6.579569 11.621605
endloop
endfacet
facet normal -0.046265 -0.471062 0.880886
outer loop
vertex -1.596653 -9.013569 10.234604
vertex 0.029346 -6.579569 11.621605
vertex -1.090653 -6.469569 11.621605
endloop
endfacet
facet normal -0.062302 -0.633147 0.771520
outer loop
vertex -1.596653 -9.013569 10.234604
vertex -2.039653 -11.242569 8.369604
vertex 0.029346 -9.173569 10.234604
endloop
endfacet
facet normal -0.075989 -0.770694 0.632658
outer loop
vertex -2.039653 -11.242569 8.369604
vertex -2.403654 -13.072569 6.096604
vertex 0.029346 -11.446569 8.369604
endloop
endfacet
facet normal -0.137633 -0.452886 0.880881
outer loop
vertex -3.159654 -8.538568 10.234604
vertex -1.596653 -9.013569 10.234604
vertex -1.090653 -6.469569 11.621605
endloop
endfacet
facet normal -0.184916 -0.608472 0.771730
outer loop
vertex -1.596653 -9.013569 10.234604
vertex -3.159654 -8.538568 10.234604
vertex -4.029654 -10.639568 8.369604
endloop
endfacet
facet normal -0.137531 -0.452970 0.880854
outer loop
vertex -2.167654 -6.142570 11.621605
vertex -3.159654 -8.538568 10.234604
vertex -1.090653 -6.469569 11.621605
endloop
endfacet
facet normal -0.184495 -0.608864 0.771522
outer loop
vertex -4.029654 -10.639568 8.369604
vertex -2.039653 -11.242569 8.369604
vertex -1.596653 -9.013569 10.234604
endloop
endfacet
facet normal -0.224856 -0.741076 0.632651
outer loop
vertex -4.743653 -12.362570 6.096604
vertex -2.403654 -13.072569 6.096604
vertex -2.039653 -11.242569 8.369604
endloop
endfacet
facet normal -0.224623 -0.741292 0.632480
outer loop
vertex -2.039653 -11.242569 8.369604
vertex -4.029654 -10.639568 8.369604
vertex -4.743653 -12.362570 6.096604
endloop
endfacet
facet normal -0.223109 -0.417533 0.880845
outer loop
vertex -4.600654 -7.768570 10.234604
vertex -3.159654 -8.538568 10.234604
vertex -2.167654 -6.142570 11.621605
endloop
endfacet
facet normal -0.299795 -0.561045 0.771590
outer loop
vertex -4.600654 -7.768570 10.234604
vertex -5.863653 -9.658569 8.369604
vertex -3.159654 -8.538568 10.234604
endloop
endfacet
facet normal -0.223090 -0.417557 0.880839
outer loop
vertex -4.600654 -7.768570 10.234604
vertex -2.167654 -6.142570 11.621605
vertex -3.159654 -5.612569 11.621605
endloop
endfacet
facet normal -0.299970 -0.560801 0.771699
outer loop
vertex -3.159654 -8.538568 10.234604
vertex -5.863653 -9.658569 8.369604
vertex -4.029654 -10.639568 8.369604
endloop
endfacet
facet normal -0.365317 -0.682967 0.632534
outer loop
vertex -5.863653 -9.658569 8.369604
vertex -6.899653 -11.209570 6.096604
vertex -4.029654 -10.639568 8.369604
endloop
endfacet
facet normal -0.365273 -0.683027 0.632495
outer loop
vertex -6.899653 -11.209570 6.096604
vertex -4.743653 -12.362570 6.096604
vertex -4.029654 -10.639568 8.369604
endloop
endfacet
facet normal -0.561044 0.299795 0.771591
outer loop
vertex -6.899653 3.790431 10.234604
vertex -8.789654 5.053431 8.369604
vertex -7.669654 2.349431 10.234604
endloop
endfacet
facet normal -0.682967 0.365317 0.632534
outer loop
vertex -10.340653 6.089431 6.096604
vertex -9.770654 3.219431 8.369604
vertex -8.789654 5.053431 8.369604
endloop
endfacet
facet normal -0.683027 0.365274 0.632495
outer loop
vertex -9.770654 3.219431 8.369604
vertex -10.340653 6.089431 6.096604
vertex -11.493653 3.933431 6.096604
endloop
endfacet
facet normal -0.491697 0.403577 0.771595
outer loop
vertex -6.899653 3.790431 10.234604
vertex -7.470654 6.660431 8.369604
vertex -8.789654 5.053431 8.369604
endloop
endfacet
facet normal -0.598678 0.491386 0.632554
outer loop
vertex -7.470654 6.660431 8.369604
vertex -8.789654 7.979431 6.096604
vertex -8.789654 5.053431 8.369604
endloop
endfacet
facet normal -0.598748 0.491354 0.632513
outer loop
vertex -8.789654 7.979431 6.096604
vertex -10.340653 6.089431 6.096604
vertex -8.789654 5.053431 8.369604
endloop
endfacet
facet normal -0.877847 0.468944 0.097347
outer loop
vertex -12.442654 7.494431 -2.237396
vertex -13.562653 4.790431 0.688604
vertex -12.203653 7.334431 0.688604
endloop
endfacet
facet normal -0.769292 0.631435 0.097365
outer loop
vertex -12.442654 7.494431 -2.237396
vertex -12.203653 7.334431 0.688604
vertex -11.929653 8.119431 -2.237396
endloop
endfacet
facet normal -0.769216 0.631523 0.097396
outer loop
vertex -12.203653 7.334431 0.688604
vertex -10.373653 9.563431 0.688604
vertex -11.929653 8.119431 -2.237396
endloop
endfacet
facet normal -0.739862 0.607424 0.289207
outer loop
vertex -10.373653 9.563431 0.688604
vertex -12.203653 7.334431 0.688604
vertex -11.493653 6.859431 3.502604
endloop
endfacet
facet normal -0.769426 0.631227 0.097653
outer loop
vertex -11.929653 8.119431 -2.237396
vertex -10.373653 9.563431 0.688604
vertex -10.577654 9.767431 -2.237396
endloop
endfacet
facet normal -0.844976 0.256191 0.469449
outer loop
vertex -13.562653 1.864431 3.502604
vertex -12.203653 1.593431 6.096604
vertex -12.774654 4.463431 3.502604
endloop
endfacet
facet normal -0.778526 0.416345 0.469632
outer loop
vertex -11.493653 6.859431 3.502604
vertex -11.493653 3.933431 6.096604
vertex -10.340653 6.089431 6.096604
endloop
endfacet
facet normal -0.778609 0.416276 0.469555
outer loop
vertex -11.493653 6.859431 3.502604
vertex -12.774654 4.463431 3.502604
vertex -11.493653 3.933431 6.096604
endloop
endfacet
facet normal -0.844194 0.451341 0.289184
outer loop
vertex -11.493653 6.859431 3.502604
vertex -12.203653 7.334431 0.688604
vertex -12.774654 4.463431 3.502604
endloop
endfacet
facet normal -0.844430 0.451093 0.288883
outer loop
vertex -12.203653 7.334431 0.688604
vertex -13.562653 4.790431 0.688604
vertex -12.774654 4.463431 3.502604
endloop
endfacet
facet normal -0.682389 0.559993 0.469844
outer loop
vertex -10.340653 6.089431 6.096604
vertex -8.789654 7.979431 6.096604
vertex -9.770654 8.960431 3.502604
endloop
endfacet
facet normal -0.682666 0.559844 0.469620
outer loop
vertex -10.340653 6.089431 6.096604
vertex -9.770654 8.960431 3.502604
vertex -11.493653 6.859431 3.502604
endloop
endfacet
facet normal -0.740303 0.607112 0.288732
outer loop
vertex -11.493653 6.859431 3.502604
vertex -9.770654 8.960431 3.502604
vertex -10.373653 9.563431 0.688604
endloop
endfacet
facet normal -0.559773 0.682577 0.469833
outer loop
vertex -7.669654 10.683431 3.502604
vertex -9.770654 8.960431 3.502604
vertex -8.789654 7.979431 6.096604
endloop
endfacet
facet normal -0.607018 0.740189 0.289221
outer loop
vertex -7.669654 10.683431 3.502604
vertex -8.144653 11.393431 0.688604
vertex -9.770654 8.960431 3.502604
endloop
endfacet
facet normal -0.607512 0.739970 0.288745
outer loop
vertex -9.770654 8.960431 3.502604
vertex -8.144653 11.393431 0.688604
vertex -10.373653 9.563431 0.688604
endloop
endfacet
facet normal 0.289982 -0.028480 0.956608
outer loop
vertex 5.769346 -0.839569 11.621605
vertex 2.899346 -1.410569 12.474604
vertex 5.659347 -1.959569 11.621605
endloop
endfacet
facet normal 0.278809 -0.084652 0.956608
outer loop
vertex 5.659347 -1.959569 11.621605
vertex 2.899346 -1.410569 12.474604
vertex 5.332346 -3.036569 11.621605
endloop
endfacet
facet normal 0.092245 -0.038210 0.995003
outer loop
vertex 2.899346 -1.410569 12.474604
vertex 0.029346 -0.839569 12.762604
vertex 2.462347 -2.465569 12.474604
endloop
endfacet
facet normal 0.247931 -0.132464 0.959679
outer loop
vertex 4.802346 -4.028569 11.621605
vertex 5.332346 -3.036569 11.621605
vertex 2.899346 -1.410569 12.474604
endloop
endfacet
facet normal -0.608864 0.184495 0.771522
outer loop
vertex -8.144653 0.786431 10.234604
vertex -9.770654 3.219431 8.369604
vertex -10.373653 1.229431 8.369604
endloop
endfacet
endsolid Exported from Blender-2.90.0

